<?xml version="1.0" encoding="utf-8" standalone="no"?>
<!DOCTYPE svg PUBLIC "-//W3C//DTD SVG 1.1//EN"
  "http://www.w3.org/Graphics/SVG/1.1/DTD/svg11.dtd">
<svg xmlns:xlink="http://www.w3.org/1999/xlink" width="720pt" height="432pt" viewBox="0 0 720 432" xmlns="http://www.w3.org/2000/svg" version="1.1">
 <metadata>
  <rdf:RDF xmlns:dc="http://purl.org/dc/elements/1.1/" xmlns:cc="http://creativecommons.org/ns#" xmlns:rdf="http://www.w3.org/1999/02/22-rdf-syntax-ns#">
   <cc:Work>
    <dc:type rdf:resource="http://purl.org/dc/dcmitype/StillImage"/>
    <dc:date>2026-05-06T17:11:31.466694</dc:date>
    <dc:format>image/svg+xml</dc:format>
    <dc:creator>
     <cc:Agent>
      <dc:title>Matplotlib v3.10.9, https://matplotlib.org/</dc:title>
     </cc:Agent>
    </dc:creator>
   </cc:Work>
  </rdf:RDF>
 </metadata>
 <defs>
  <style type="text/css">*{stroke-linejoin: round; stroke-linecap: butt}</style>
 </defs>
 <g id="figure_1">
  <g id="patch_1">
   <path d="M 0 432 
L 720 432 
L 720 0 
L 0 0 
z
" style="fill: #ffffff"/>
  </g>
  <g id="axes_1">
   <g id="patch_2">
    <path d="M 76.643217 386.728 
L 709.2 386.728 
L 709.2 26.88 
L 76.643217 26.88 
z
" style="fill: #ffffff"/>
   </g>
   <g id="matplotlib.axis_1">
    <g id="xtick_1">
     <g id="line2d_1">
      <path d="M 105.395798 386.728 
L 105.395798 26.88 
" clip-path="url(#pf4c20ee129)" style="fill: none; stroke: #b0b0b0; stroke-opacity: 0.3; stroke-width: 0.8; stroke-linecap: square"/>
     </g>
     <g id="line2d_2">
      <defs>
       <path id="m7b7ebc02d8" d="M 0 0 
L 0 3.5 
" style="stroke: #000000; stroke-width: 0.8"/>
      </defs>
      <g>
       <use xlink:href="#m7b7ebc02d8" x="105.395798" y="386.728" style="stroke: #000000; stroke-width: 0.8"/>
      </g>
     </g>
     <g id="text_1">
      <!-- $\mathdefault{10^{6}}$ -->
      <g transform="translate(96.595798 401.326437) scale(0.1 -0.1)">
       <defs>
        <path id="DejaVuSans-31" d="M 794 531 
L 1825 531 
L 1825 4091 
L 703 3866 
L 703 4441 
L 1819 4666 
L 2450 4666 
L 2450 531 
L 3481 531 
L 3481 0 
L 794 0 
L 794 531 
z
" transform="scale(0.015625)"/>
        <path id="DejaVuSans-30" d="M 2034 4250 
Q 1547 4250 1301 3770 
Q 1056 3291 1056 2328 
Q 1056 1369 1301 889 
Q 1547 409 2034 409 
Q 2525 409 2770 889 
Q 3016 1369 3016 2328 
Q 3016 3291 2770 3770 
Q 2525 4250 2034 4250 
z
M 2034 4750 
Q 2819 4750 3233 4129 
Q 3647 3509 3647 2328 
Q 3647 1150 3233 529 
Q 2819 -91 2034 -91 
Q 1250 -91 836 529 
Q 422 1150 422 2328 
Q 422 3509 836 4129 
Q 1250 4750 2034 4750 
z
" transform="scale(0.015625)"/>
        <path id="DejaVuSans-36" d="M 2113 2584 
Q 1688 2584 1439 2293 
Q 1191 2003 1191 1497 
Q 1191 994 1439 701 
Q 1688 409 2113 409 
Q 2538 409 2786 701 
Q 3034 994 3034 1497 
Q 3034 2003 2786 2293 
Q 2538 2584 2113 2584 
z
M 3366 4563 
L 3366 3988 
Q 3128 4100 2886 4159 
Q 2644 4219 2406 4219 
Q 1781 4219 1451 3797 
Q 1122 3375 1075 2522 
Q 1259 2794 1537 2939 
Q 1816 3084 2150 3084 
Q 2853 3084 3261 2657 
Q 3669 2231 3669 1497 
Q 3669 778 3244 343 
Q 2819 -91 2113 -91 
Q 1303 -91 875 529 
Q 447 1150 447 2328 
Q 447 3434 972 4092 
Q 1497 4750 2381 4750 
Q 2619 4750 2861 4703 
Q 3103 4656 3366 4563 
z
" transform="scale(0.015625)"/>
       </defs>
       <use xlink:href="#DejaVuSans-31" transform="translate(0 0.765625)"/>
       <use xlink:href="#DejaVuSans-30" transform="translate(63.623047 0.765625)"/>
       <use xlink:href="#DejaVuSans-36" transform="translate(128.203125 39.046875) scale(0.7)"/>
      </g>
     </g>
    </g>
    <g id="xtick_2">
     <g id="line2d_3">
      <path d="M 392.921608 386.728 
L 392.921608 26.88 
" clip-path="url(#pf4c20ee129)" style="fill: none; stroke: #b0b0b0; stroke-opacity: 0.3; stroke-width: 0.8; stroke-linecap: square"/>
     </g>
     <g id="line2d_4">
      <g>
       <use xlink:href="#m7b7ebc02d8" x="392.921608" y="386.728" style="stroke: #000000; stroke-width: 0.8"/>
      </g>
     </g>
     <g id="text_2">
      <!-- $\mathdefault{10^{7}}$ -->
      <g transform="translate(384.121608 401.326437) scale(0.1 -0.1)">
       <defs>
        <path id="DejaVuSans-37" d="M 525 4666 
L 3525 4666 
L 3525 4397 
L 1831 0 
L 1172 0 
L 2766 4134 
L 525 4134 
L 525 4666 
z
" transform="scale(0.015625)"/>
       </defs>
       <use xlink:href="#DejaVuSans-31" transform="translate(0 0.684375)"/>
       <use xlink:href="#DejaVuSans-30" transform="translate(63.623047 0.684375)"/>
       <use xlink:href="#DejaVuSans-37" transform="translate(128.203125 38.965625) scale(0.7)"/>
      </g>
     </g>
    </g>
    <g id="xtick_3">
     <g id="line2d_5">
      <path d="M 680.447419 386.728 
L 680.447419 26.88 
" clip-path="url(#pf4c20ee129)" style="fill: none; stroke: #b0b0b0; stroke-opacity: 0.3; stroke-width: 0.8; stroke-linecap: square"/>
     </g>
     <g id="line2d_6">
      <g>
       <use xlink:href="#m7b7ebc02d8" x="680.447419" y="386.728" style="stroke: #000000; stroke-width: 0.8"/>
      </g>
     </g>
     <g id="text_3">
      <!-- $\mathdefault{10^{8}}$ -->
      <g transform="translate(671.647419 401.326437) scale(0.1 -0.1)">
       <defs>
        <path id="DejaVuSans-38" d="M 2034 2216 
Q 1584 2216 1326 1975 
Q 1069 1734 1069 1313 
Q 1069 891 1326 650 
Q 1584 409 2034 409 
Q 2484 409 2743 651 
Q 3003 894 3003 1313 
Q 3003 1734 2745 1975 
Q 2488 2216 2034 2216 
z
M 1403 2484 
Q 997 2584 770 2862 
Q 544 3141 544 3541 
Q 544 4100 942 4425 
Q 1341 4750 2034 4750 
Q 2731 4750 3128 4425 
Q 3525 4100 3525 3541 
Q 3525 3141 3298 2862 
Q 3072 2584 2669 2484 
Q 3125 2378 3379 2068 
Q 3634 1759 3634 1313 
Q 3634 634 3220 271 
Q 2806 -91 2034 -91 
Q 1263 -91 848 271 
Q 434 634 434 1313 
Q 434 1759 690 2068 
Q 947 2378 1403 2484 
z
M 1172 3481 
Q 1172 3119 1398 2916 
Q 1625 2713 2034 2713 
Q 2441 2713 2670 2916 
Q 2900 3119 2900 3481 
Q 2900 3844 2670 4047 
Q 2441 4250 2034 4250 
Q 1625 4250 1398 4047 
Q 1172 3844 1172 3481 
z
" transform="scale(0.015625)"/>
       </defs>
       <use xlink:href="#DejaVuSans-31" transform="translate(0 0.765625)"/>
       <use xlink:href="#DejaVuSans-30" transform="translate(63.623047 0.765625)"/>
       <use xlink:href="#DejaVuSans-38" transform="translate(128.203125 39.046875) scale(0.7)"/>
      </g>
     </g>
    </g>
    <g id="xtick_4">
     <g id="line2d_7">
      <defs>
       <path id="me5dab65b43" d="M 0 0 
L 0 2 
" style="stroke: #000000; stroke-width: 0.6"/>
      </defs>
      <g>
       <use xlink:href="#me5dab65b43" x="77.531668" y="386.728" style="stroke: #000000; stroke-width: 0.6"/>
      </g>
     </g>
    </g>
    <g id="xtick_5">
     <g id="line2d_8">
      <g>
       <use xlink:href="#me5dab65b43" x="92.239338" y="386.728" style="stroke: #000000; stroke-width: 0.6"/>
      </g>
     </g>
    </g>
    <g id="xtick_6">
     <g id="line2d_9">
      <g>
       <use xlink:href="#me5dab65b43" x="191.949692" y="386.728" style="stroke: #000000; stroke-width: 0.6"/>
      </g>
     </g>
    </g>
    <g id="xtick_7">
     <g id="line2d_10">
      <g>
       <use xlink:href="#me5dab65b43" x="242.580473" y="386.728" style="stroke: #000000; stroke-width: 0.6"/>
      </g>
     </g>
    </g>
    <g id="xtick_8">
     <g id="line2d_11">
      <g>
       <use xlink:href="#me5dab65b43" x="278.503585" y="386.728" style="stroke: #000000; stroke-width: 0.6"/>
      </g>
     </g>
    </g>
    <g id="xtick_9">
     <g id="line2d_12">
      <g>
       <use xlink:href="#me5dab65b43" x="306.367715" y="386.728" style="stroke: #000000; stroke-width: 0.6"/>
      </g>
     </g>
    </g>
    <g id="xtick_10">
     <g id="line2d_13">
      <g>
       <use xlink:href="#me5dab65b43" x="329.134367" y="386.728" style="stroke: #000000; stroke-width: 0.6"/>
      </g>
     </g>
    </g>
    <g id="xtick_11">
     <g id="line2d_14">
      <g>
       <use xlink:href="#me5dab65b43" x="348.383297" y="386.728" style="stroke: #000000; stroke-width: 0.6"/>
      </g>
     </g>
    </g>
    <g id="xtick_12">
     <g id="line2d_15">
      <g>
       <use xlink:href="#me5dab65b43" x="365.057478" y="386.728" style="stroke: #000000; stroke-width: 0.6"/>
      </g>
     </g>
    </g>
    <g id="xtick_13">
     <g id="line2d_16">
      <g>
       <use xlink:href="#me5dab65b43" x="379.765149" y="386.728" style="stroke: #000000; stroke-width: 0.6"/>
      </g>
     </g>
    </g>
    <g id="xtick_14">
     <g id="line2d_17">
      <g>
       <use xlink:href="#me5dab65b43" x="479.475502" y="386.728" style="stroke: #000000; stroke-width: 0.6"/>
      </g>
     </g>
    </g>
    <g id="xtick_15">
     <g id="line2d_18">
      <g>
       <use xlink:href="#me5dab65b43" x="530.106284" y="386.728" style="stroke: #000000; stroke-width: 0.6"/>
      </g>
     </g>
    </g>
    <g id="xtick_16">
     <g id="line2d_19">
      <g>
       <use xlink:href="#me5dab65b43" x="566.029395" y="386.728" style="stroke: #000000; stroke-width: 0.6"/>
      </g>
     </g>
    </g>
    <g id="xtick_17">
     <g id="line2d_20">
      <g>
       <use xlink:href="#me5dab65b43" x="593.893525" y="386.728" style="stroke: #000000; stroke-width: 0.6"/>
      </g>
     </g>
    </g>
    <g id="xtick_18">
     <g id="line2d_21">
      <g>
       <use xlink:href="#me5dab65b43" x="616.660177" y="386.728" style="stroke: #000000; stroke-width: 0.6"/>
      </g>
     </g>
    </g>
    <g id="xtick_19">
     <g id="line2d_22">
      <g>
       <use xlink:href="#me5dab65b43" x="635.909107" y="386.728" style="stroke: #000000; stroke-width: 0.6"/>
      </g>
     </g>
    </g>
    <g id="xtick_20">
     <g id="line2d_23">
      <g>
       <use xlink:href="#me5dab65b43" x="652.583289" y="386.728" style="stroke: #000000; stroke-width: 0.6"/>
      </g>
     </g>
    </g>
    <g id="xtick_21">
     <g id="line2d_24">
      <g>
       <use xlink:href="#me5dab65b43" x="667.290959" y="386.728" style="stroke: #000000; stroke-width: 0.6"/>
      </g>
     </g>
    </g>
    <g id="text_4">
     <!-- Signal size -->
     <g transform="translate(366.27864 415.004563) scale(0.1 -0.1)">
      <defs>
       <path id="DejaVuSans-53" d="M 3425 4513 
L 3425 3897 
Q 3066 4069 2747 4153 
Q 2428 4238 2131 4238 
Q 1616 4238 1336 4038 
Q 1056 3838 1056 3469 
Q 1056 3159 1242 3001 
Q 1428 2844 1947 2747 
L 2328 2669 
Q 3034 2534 3370 2195 
Q 3706 1856 3706 1288 
Q 3706 609 3251 259 
Q 2797 -91 1919 -91 
Q 1588 -91 1214 -16 
Q 841 59 441 206 
L 441 856 
Q 825 641 1194 531 
Q 1563 422 1919 422 
Q 2459 422 2753 634 
Q 3047 847 3047 1241 
Q 3047 1584 2836 1778 
Q 2625 1972 2144 2069 
L 1759 2144 
Q 1053 2284 737 2584 
Q 422 2884 422 3419 
Q 422 4038 858 4394 
Q 1294 4750 2059 4750 
Q 2388 4750 2728 4690 
Q 3069 4631 3425 4513 
z
" transform="scale(0.015625)"/>
       <path id="DejaVuSans-69" d="M 603 3500 
L 1178 3500 
L 1178 0 
L 603 0 
L 603 3500 
z
M 603 4863 
L 1178 4863 
L 1178 4134 
L 603 4134 
L 603 4863 
z
" transform="scale(0.015625)"/>
       <path id="DejaVuSans-67" d="M 2906 1791 
Q 2906 2416 2648 2759 
Q 2391 3103 1925 3103 
Q 1463 3103 1205 2759 
Q 947 2416 947 1791 
Q 947 1169 1205 825 
Q 1463 481 1925 481 
Q 2391 481 2648 825 
Q 2906 1169 2906 1791 
z
M 3481 434 
Q 3481 -459 3084 -895 
Q 2688 -1331 1869 -1331 
Q 1566 -1331 1297 -1286 
Q 1028 -1241 775 -1147 
L 775 -588 
Q 1028 -725 1275 -790 
Q 1522 -856 1778 -856 
Q 2344 -856 2625 -561 
Q 2906 -266 2906 331 
L 2906 616 
Q 2728 306 2450 153 
Q 2172 0 1784 0 
Q 1141 0 747 490 
Q 353 981 353 1791 
Q 353 2603 747 3093 
Q 1141 3584 1784 3584 
Q 2172 3584 2450 3431 
Q 2728 3278 2906 2969 
L 2906 3500 
L 3481 3500 
L 3481 434 
z
" transform="scale(0.015625)"/>
       <path id="DejaVuSans-6e" d="M 3513 2113 
L 3513 0 
L 2938 0 
L 2938 2094 
Q 2938 2591 2744 2837 
Q 2550 3084 2163 3084 
Q 1697 3084 1428 2787 
Q 1159 2491 1159 1978 
L 1159 0 
L 581 0 
L 581 3500 
L 1159 3500 
L 1159 2956 
Q 1366 3272 1645 3428 
Q 1925 3584 2291 3584 
Q 2894 3584 3203 3211 
Q 3513 2838 3513 2113 
z
" transform="scale(0.015625)"/>
       <path id="DejaVuSans-61" d="M 2194 1759 
Q 1497 1759 1228 1600 
Q 959 1441 959 1056 
Q 959 750 1161 570 
Q 1363 391 1709 391 
Q 2188 391 2477 730 
Q 2766 1069 2766 1631 
L 2766 1759 
L 2194 1759 
z
M 3341 1997 
L 3341 0 
L 2766 0 
L 2766 531 
Q 2569 213 2275 61 
Q 1981 -91 1556 -91 
Q 1019 -91 701 211 
Q 384 513 384 1019 
Q 384 1609 779 1909 
Q 1175 2209 1959 2209 
L 2766 2209 
L 2766 2266 
Q 2766 2663 2505 2880 
Q 2244 3097 1772 3097 
Q 1472 3097 1187 3025 
Q 903 2953 641 2809 
L 641 3341 
Q 956 3463 1253 3523 
Q 1550 3584 1831 3584 
Q 2591 3584 2966 3190 
Q 3341 2797 3341 1997 
z
" transform="scale(0.015625)"/>
       <path id="DejaVuSans-6c" d="M 603 4863 
L 1178 4863 
L 1178 0 
L 603 0 
L 603 4863 
z
" transform="scale(0.015625)"/>
       <path id="DejaVuSans-20" transform="scale(0.015625)"/>
       <path id="DejaVuSans-73" d="M 2834 3397 
L 2834 2853 
Q 2591 2978 2328 3040 
Q 2066 3103 1784 3103 
Q 1356 3103 1142 2972 
Q 928 2841 928 2578 
Q 928 2378 1081 2264 
Q 1234 2150 1697 2047 
L 1894 2003 
Q 2506 1872 2764 1633 
Q 3022 1394 3022 966 
Q 3022 478 2636 193 
Q 2250 -91 1575 -91 
Q 1294 -91 989 -36 
Q 684 19 347 128 
L 347 722 
Q 666 556 975 473 
Q 1284 391 1588 391 
Q 1994 391 2212 530 
Q 2431 669 2431 922 
Q 2431 1156 2273 1281 
Q 2116 1406 1581 1522 
L 1381 1569 
Q 847 1681 609 1914 
Q 372 2147 372 2553 
Q 372 3047 722 3315 
Q 1072 3584 1716 3584 
Q 2034 3584 2315 3537 
Q 2597 3491 2834 3397 
z
" transform="scale(0.015625)"/>
       <path id="DejaVuSans-7a" d="M 353 3500 
L 3084 3500 
L 3084 2975 
L 922 459 
L 3084 459 
L 3084 0 
L 275 0 
L 275 525 
L 2438 3041 
L 353 3041 
L 353 3500 
z
" transform="scale(0.015625)"/>
       <path id="DejaVuSans-65" d="M 3597 1894 
L 3597 1613 
L 953 1613 
Q 991 1019 1311 708 
Q 1631 397 2203 397 
Q 2534 397 2845 478 
Q 3156 559 3463 722 
L 3463 178 
Q 3153 47 2828 -22 
Q 2503 -91 2169 -91 
Q 1331 -91 842 396 
Q 353 884 353 1716 
Q 353 2575 817 3079 
Q 1281 3584 2069 3584 
Q 2775 3584 3186 3129 
Q 3597 2675 3597 1894 
z
M 3022 2063 
Q 3016 2534 2758 2815 
Q 2500 3097 2075 3097 
Q 1594 3097 1305 2825 
Q 1016 2553 972 2059 
L 3022 2063 
z
" transform="scale(0.015625)"/>
      </defs>
      <use xlink:href="#DejaVuSans-53"/>
      <use xlink:href="#DejaVuSans-69" transform="translate(63.476562 0)"/>
      <use xlink:href="#DejaVuSans-67" transform="translate(91.259766 0)"/>
      <use xlink:href="#DejaVuSans-6e" transform="translate(154.736328 0)"/>
      <use xlink:href="#DejaVuSans-61" transform="translate(218.115234 0)"/>
      <use xlink:href="#DejaVuSans-6c" transform="translate(279.394531 0)"/>
      <use xlink:href="#DejaVuSans-20" transform="translate(307.177734 0)"/>
      <use xlink:href="#DejaVuSans-73" transform="translate(338.964844 0)"/>
      <use xlink:href="#DejaVuSans-69" transform="translate(391.064453 0)"/>
      <use xlink:href="#DejaVuSans-7a" transform="translate(418.847656 0)"/>
      <use xlink:href="#DejaVuSans-65" transform="translate(471.337891 0)"/>
     </g>
    </g>
   </g>
   <g id="matplotlib.axis_2">
    <g id="ytick_1">
     <g id="line2d_25">
      <path d="M 76.643217 279.647997 
L 709.2 279.647997 
" clip-path="url(#pf4c20ee129)" style="fill: none; stroke: #b0b0b0; stroke-opacity: 0.3; stroke-width: 0.8; stroke-linecap: square"/>
     </g>
     <g id="line2d_26">
      <defs>
       <path id="mbe0ea3233e" d="M 0 0 
L -3.5 0 
" style="stroke: #000000; stroke-width: 0.8"/>
      </defs>
      <g>
       <use xlink:href="#mbe0ea3233e" x="76.643217" y="279.647997" style="stroke: #000000; stroke-width: 0.8"/>
      </g>
     </g>
     <g id="text_5">
      <!-- $\mathdefault{10^{0}}$ -->
      <g transform="translate(52.043217 283.447216) scale(0.1 -0.1)">
       <use xlink:href="#DejaVuSans-31" transform="translate(0 0.765625)"/>
       <use xlink:href="#DejaVuSans-30" transform="translate(63.623047 0.765625)"/>
       <use xlink:href="#DejaVuSans-30" transform="translate(128.203125 39.046875) scale(0.7)"/>
      </g>
     </g>
    </g>
    <g id="ytick_2">
     <g id="line2d_27">
      <defs>
       <path id="mfd5f272801" d="M 0 0 
L -2 0 
" style="stroke: #000000; stroke-width: 0.6"/>
      </defs>
      <g>
       <use xlink:href="#mfd5f272801" x="76.643217" y="332.467114" style="stroke: #000000; stroke-width: 0.6"/>
      </g>
     </g>
     <g id="text_6">
      <!-- $\mathdefault{9\times10^{-1}}$ -->
      <g transform="translate(29.143217 336.266333) scale(0.1 -0.1)">
       <defs>
        <path id="DejaVuSans-39" d="M 703 97 
L 703 672 
Q 941 559 1184 500 
Q 1428 441 1663 441 
Q 2288 441 2617 861 
Q 2947 1281 2994 2138 
Q 2813 1869 2534 1725 
Q 2256 1581 1919 1581 
Q 1219 1581 811 2004 
Q 403 2428 403 3163 
Q 403 3881 828 4315 
Q 1253 4750 1959 4750 
Q 2769 4750 3195 4129 
Q 3622 3509 3622 2328 
Q 3622 1225 3098 567 
Q 2575 -91 1691 -91 
Q 1453 -91 1209 -44 
Q 966 3 703 97 
z
M 1959 2075 
Q 2384 2075 2632 2365 
Q 2881 2656 2881 3163 
Q 2881 3666 2632 3958 
Q 2384 4250 1959 4250 
Q 1534 4250 1286 3958 
Q 1038 3666 1038 3163 
Q 1038 2656 1286 2365 
Q 1534 2075 1959 2075 
z
" transform="scale(0.015625)"/>
        <path id="DejaVuSans-d7" d="M 4488 3438 
L 3059 2003 
L 4488 575 
L 4116 197 
L 2681 1631 
L 1247 197 
L 878 575 
L 2303 2003 
L 878 3438 
L 1247 3816 
L 2681 2381 
L 4116 3816 
L 4488 3438 
z
" transform="scale(0.015625)"/>
        <path id="DejaVuSans-2212" d="M 678 2272 
L 4684 2272 
L 4684 1741 
L 678 1741 
L 678 2272 
z
" transform="scale(0.015625)"/>
       </defs>
       <use xlink:href="#DejaVuSans-39" transform="translate(0 0.684375)"/>
       <use xlink:href="#DejaVuSans-d7" transform="translate(83.105469 0.684375)"/>
       <use xlink:href="#DejaVuSans-31" transform="translate(186.376953 0.684375)"/>
       <use xlink:href="#DejaVuSans-30" transform="translate(250 0.684375)"/>
       <use xlink:href="#DejaVuSans-2212" transform="translate(314.580078 38.965625) scale(0.7)"/>
       <use xlink:href="#DejaVuSans-31" transform="translate(373.232422 38.965625) scale(0.7)"/>
      </g>
     </g>
    </g>
    <g id="ytick_3">
     <g id="line2d_28">
      <g>
       <use xlink:href="#mfd5f272801" x="76.643217" y="231.867294" style="stroke: #000000; stroke-width: 0.6"/>
      </g>
     </g>
     <g id="text_7">
      <!-- $\mathdefault{1.1\times10^{0}}$ -->
      <g transform="translate(25.443217 235.666513) scale(0.1 -0.1)">
       <defs>
        <path id="DejaVuSans-2e" d="M 684 794 
L 1344 794 
L 1344 0 
L 684 0 
L 684 794 
z
" transform="scale(0.015625)"/>
       </defs>
       <use xlink:href="#DejaVuSans-31" transform="translate(0 0.765625)"/>
       <use xlink:href="#DejaVuSans-2e" transform="translate(63.623047 0.765625)"/>
       <use xlink:href="#DejaVuSans-31" transform="translate(95.410156 0.765625)"/>
       <use xlink:href="#DejaVuSans-d7" transform="translate(178.515625 0.765625)"/>
       <use xlink:href="#DejaVuSans-31" transform="translate(281.787109 0.765625)"/>
       <use xlink:href="#DejaVuSans-30" transform="translate(345.410156 0.765625)"/>
       <use xlink:href="#DejaVuSans-30" transform="translate(409.990234 39.046875) scale(0.7)"/>
      </g>
     </g>
    </g>
    <g id="ytick_4">
     <g id="line2d_29">
      <g>
       <use xlink:href="#mfd5f272801" x="76.643217" y="188.24693" style="stroke: #000000; stroke-width: 0.6"/>
      </g>
     </g>
     <g id="text_8">
      <!-- $\mathdefault{1.2\times10^{0}}$ -->
      <g transform="translate(26.043217 192.046149) scale(0.1 -0.1)">
       <defs>
        <path id="DejaVuSans-32" d="M 1228 531 
L 3431 531 
L 3431 0 
L 469 0 
L 469 531 
Q 828 903 1448 1529 
Q 2069 2156 2228 2338 
Q 2531 2678 2651 2914 
Q 2772 3150 2772 3378 
Q 2772 3750 2511 3984 
Q 2250 4219 1831 4219 
Q 1534 4219 1204 4116 
Q 875 4013 500 3803 
L 500 4441 
Q 881 4594 1212 4672 
Q 1544 4750 1819 4750 
Q 2544 4750 2975 4387 
Q 3406 4025 3406 3419 
Q 3406 3131 3298 2873 
Q 3191 2616 2906 2266 
Q 2828 2175 2409 1742 
Q 1991 1309 1228 531 
z
" transform="scale(0.015625)"/>
       </defs>
       <use xlink:href="#DejaVuSans-31" transform="translate(0 0.765625)"/>
       <use xlink:href="#DejaVuSans-2e" transform="translate(63.623047 0.765625)"/>
       <use xlink:href="#DejaVuSans-32" transform="translate(89.910156 0.765625)"/>
       <use xlink:href="#DejaVuSans-d7" transform="translate(173.015625 0.765625)"/>
       <use xlink:href="#DejaVuSans-31" transform="translate(276.287109 0.765625)"/>
       <use xlink:href="#DejaVuSans-30" transform="translate(339.910156 0.765625)"/>
       <use xlink:href="#DejaVuSans-30" transform="translate(404.490234 39.046875) scale(0.7)"/>
      </g>
     </g>
    </g>
    <g id="ytick_5">
     <g id="line2d_30">
      <g>
       <use xlink:href="#mfd5f272801" x="76.643217" y="148.120085" style="stroke: #000000; stroke-width: 0.6"/>
      </g>
     </g>
     <g id="text_9">
      <!-- $\mathdefault{1.3\times10^{0}}$ -->
      <g transform="translate(25.443217 151.919304) scale(0.1 -0.1)">
       <defs>
        <path id="DejaVuSans-33" d="M 2597 2516 
Q 3050 2419 3304 2112 
Q 3559 1806 3559 1356 
Q 3559 666 3084 287 
Q 2609 -91 1734 -91 
Q 1441 -91 1130 -33 
Q 819 25 488 141 
L 488 750 
Q 750 597 1062 519 
Q 1375 441 1716 441 
Q 2309 441 2620 675 
Q 2931 909 2931 1356 
Q 2931 1769 2642 2001 
Q 2353 2234 1838 2234 
L 1294 2234 
L 1294 2753 
L 1863 2753 
Q 2328 2753 2575 2939 
Q 2822 3125 2822 3475 
Q 2822 3834 2567 4026 
Q 2313 4219 1838 4219 
Q 1578 4219 1281 4162 
Q 984 4106 628 3988 
L 628 4550 
Q 988 4650 1302 4700 
Q 1616 4750 1894 4750 
Q 2613 4750 3031 4423 
Q 3450 4097 3450 3541 
Q 3450 3153 3228 2886 
Q 3006 2619 2597 2516 
z
" transform="scale(0.015625)"/>
       </defs>
       <use xlink:href="#DejaVuSans-31" transform="translate(0 0.765625)"/>
       <use xlink:href="#DejaVuSans-2e" transform="translate(63.623047 0.765625)"/>
       <use xlink:href="#DejaVuSans-33" transform="translate(95.410156 0.765625)"/>
       <use xlink:href="#DejaVuSans-d7" transform="translate(178.515625 0.765625)"/>
       <use xlink:href="#DejaVuSans-31" transform="translate(281.787109 0.765625)"/>
       <use xlink:href="#DejaVuSans-30" transform="translate(345.410156 0.765625)"/>
       <use xlink:href="#DejaVuSans-30" transform="translate(409.990234 39.046875) scale(0.7)"/>
      </g>
     </g>
    </g>
    <g id="ytick_6">
     <g id="line2d_31">
      <g>
       <use xlink:href="#mfd5f272801" x="76.643217" y="110.968429" style="stroke: #000000; stroke-width: 0.6"/>
      </g>
     </g>
     <g id="text_10">
      <!-- $\mathdefault{1.4\times10^{0}}$ -->
      <g transform="translate(25.443217 114.767648) scale(0.1 -0.1)">
       <defs>
        <path id="DejaVuSans-34" d="M 2419 4116 
L 825 1625 
L 2419 1625 
L 2419 4116 
z
M 2253 4666 
L 3047 4666 
L 3047 1625 
L 3713 1625 
L 3713 1100 
L 3047 1100 
L 3047 0 
L 2419 0 
L 2419 1100 
L 313 1100 
L 313 1709 
L 2253 4666 
z
" transform="scale(0.015625)"/>
       </defs>
       <use xlink:href="#DejaVuSans-31" transform="translate(0 0.765625)"/>
       <use xlink:href="#DejaVuSans-2e" transform="translate(63.623047 0.765625)"/>
       <use xlink:href="#DejaVuSans-34" transform="translate(95.410156 0.765625)"/>
       <use xlink:href="#DejaVuSans-d7" transform="translate(178.515625 0.765625)"/>
       <use xlink:href="#DejaVuSans-31" transform="translate(281.787109 0.765625)"/>
       <use xlink:href="#DejaVuSans-30" transform="translate(345.410156 0.765625)"/>
       <use xlink:href="#DejaVuSans-30" transform="translate(409.990234 39.046875) scale(0.7)"/>
      </g>
     </g>
    </g>
    <g id="ytick_7">
     <g id="line2d_32">
      <g>
       <use xlink:href="#mfd5f272801" x="76.643217" y="76.381065" style="stroke: #000000; stroke-width: 0.6"/>
      </g>
     </g>
     <g id="text_11">
      <!-- $\mathdefault{1.5\times10^{0}}$ -->
      <g transform="translate(25.443217 80.180284) scale(0.1 -0.1)">
       <defs>
        <path id="DejaVuSans-35" d="M 691 4666 
L 3169 4666 
L 3169 4134 
L 1269 4134 
L 1269 2991 
Q 1406 3038 1543 3061 
Q 1681 3084 1819 3084 
Q 2600 3084 3056 2656 
Q 3513 2228 3513 1497 
Q 3513 744 3044 326 
Q 2575 -91 1722 -91 
Q 1428 -91 1123 -41 
Q 819 9 494 109 
L 494 744 
Q 775 591 1075 516 
Q 1375 441 1709 441 
Q 2250 441 2565 725 
Q 2881 1009 2881 1497 
Q 2881 1984 2565 2268 
Q 2250 2553 1709 2553 
Q 1456 2553 1204 2497 
Q 953 2441 691 2322 
L 691 4666 
z
" transform="scale(0.015625)"/>
       </defs>
       <use xlink:href="#DejaVuSans-31" transform="translate(0 0.765625)"/>
       <use xlink:href="#DejaVuSans-2e" transform="translate(63.623047 0.765625)"/>
       <use xlink:href="#DejaVuSans-35" transform="translate(95.410156 0.765625)"/>
       <use xlink:href="#DejaVuSans-d7" transform="translate(178.515625 0.765625)"/>
       <use xlink:href="#DejaVuSans-31" transform="translate(281.787109 0.765625)"/>
       <use xlink:href="#DejaVuSans-30" transform="translate(345.410156 0.765625)"/>
       <use xlink:href="#DejaVuSans-30" transform="translate(409.990234 39.046875) scale(0.7)"/>
      </g>
     </g>
    </g>
    <g id="ytick_8">
     <g id="line2d_33">
      <g>
       <use xlink:href="#mfd5f272801" x="76.643217" y="44.026746" style="stroke: #000000; stroke-width: 0.6"/>
      </g>
     </g>
     <g id="text_12">
      <!-- $\mathdefault{1.6\times10^{0}}$ -->
      <g transform="translate(25.443217 47.825965) scale(0.1 -0.1)">
       <use xlink:href="#DejaVuSans-31" transform="translate(0 0.765625)"/>
       <use xlink:href="#DejaVuSans-2e" transform="translate(63.623047 0.765625)"/>
       <use xlink:href="#DejaVuSans-36" transform="translate(95.410156 0.765625)"/>
       <use xlink:href="#DejaVuSans-d7" transform="translate(178.515625 0.765625)"/>
       <use xlink:href="#DejaVuSans-31" transform="translate(281.787109 0.765625)"/>
       <use xlink:href="#DejaVuSans-30" transform="translate(345.410156 0.765625)"/>
       <use xlink:href="#DejaVuSans-30" transform="translate(409.990234 39.046875) scale(0.7)"/>
      </g>
     </g>
    </g>
    <g id="text_13">
     <!-- Speedup vs 1 CPU thread -->
     <g transform="translate(19.363529 270.476656) rotate(-90) scale(0.1 -0.1)">
      <defs>
       <path id="DejaVuSans-70" d="M 1159 525 
L 1159 -1331 
L 581 -1331 
L 581 3500 
L 1159 3500 
L 1159 2969 
Q 1341 3281 1617 3432 
Q 1894 3584 2278 3584 
Q 2916 3584 3314 3078 
Q 3713 2572 3713 1747 
Q 3713 922 3314 415 
Q 2916 -91 2278 -91 
Q 1894 -91 1617 61 
Q 1341 213 1159 525 
z
M 3116 1747 
Q 3116 2381 2855 2742 
Q 2594 3103 2138 3103 
Q 1681 3103 1420 2742 
Q 1159 2381 1159 1747 
Q 1159 1113 1420 752 
Q 1681 391 2138 391 
Q 2594 391 2855 752 
Q 3116 1113 3116 1747 
z
" transform="scale(0.015625)"/>
       <path id="DejaVuSans-64" d="M 2906 2969 
L 2906 4863 
L 3481 4863 
L 3481 0 
L 2906 0 
L 2906 525 
Q 2725 213 2448 61 
Q 2172 -91 1784 -91 
Q 1150 -91 751 415 
Q 353 922 353 1747 
Q 353 2572 751 3078 
Q 1150 3584 1784 3584 
Q 2172 3584 2448 3432 
Q 2725 3281 2906 2969 
z
M 947 1747 
Q 947 1113 1208 752 
Q 1469 391 1925 391 
Q 2381 391 2643 752 
Q 2906 1113 2906 1747 
Q 2906 2381 2643 2742 
Q 2381 3103 1925 3103 
Q 1469 3103 1208 2742 
Q 947 2381 947 1747 
z
" transform="scale(0.015625)"/>
       <path id="DejaVuSans-75" d="M 544 1381 
L 544 3500 
L 1119 3500 
L 1119 1403 
Q 1119 906 1312 657 
Q 1506 409 1894 409 
Q 2359 409 2629 706 
Q 2900 1003 2900 1516 
L 2900 3500 
L 3475 3500 
L 3475 0 
L 2900 0 
L 2900 538 
Q 2691 219 2414 64 
Q 2138 -91 1772 -91 
Q 1169 -91 856 284 
Q 544 659 544 1381 
z
M 1991 3584 
L 1991 3584 
z
" transform="scale(0.015625)"/>
       <path id="DejaVuSans-76" d="M 191 3500 
L 800 3500 
L 1894 563 
L 2988 3500 
L 3597 3500 
L 2284 0 
L 1503 0 
L 191 3500 
z
" transform="scale(0.015625)"/>
       <path id="DejaVuSans-43" d="M 4122 4306 
L 4122 3641 
Q 3803 3938 3442 4084 
Q 3081 4231 2675 4231 
Q 1875 4231 1450 3742 
Q 1025 3253 1025 2328 
Q 1025 1406 1450 917 
Q 1875 428 2675 428 
Q 3081 428 3442 575 
Q 3803 722 4122 1019 
L 4122 359 
Q 3791 134 3420 21 
Q 3050 -91 2638 -91 
Q 1578 -91 968 557 
Q 359 1206 359 2328 
Q 359 3453 968 4101 
Q 1578 4750 2638 4750 
Q 3056 4750 3426 4639 
Q 3797 4528 4122 4306 
z
" transform="scale(0.015625)"/>
       <path id="DejaVuSans-50" d="M 1259 4147 
L 1259 2394 
L 2053 2394 
Q 2494 2394 2734 2622 
Q 2975 2850 2975 3272 
Q 2975 3691 2734 3919 
Q 2494 4147 2053 4147 
L 1259 4147 
z
M 628 4666 
L 2053 4666 
Q 2838 4666 3239 4311 
Q 3641 3956 3641 3272 
Q 3641 2581 3239 2228 
Q 2838 1875 2053 1875 
L 1259 1875 
L 1259 0 
L 628 0 
L 628 4666 
z
" transform="scale(0.015625)"/>
       <path id="DejaVuSans-55" d="M 556 4666 
L 1191 4666 
L 1191 1831 
Q 1191 1081 1462 751 
Q 1734 422 2344 422 
Q 2950 422 3222 751 
Q 3494 1081 3494 1831 
L 3494 4666 
L 4128 4666 
L 4128 1753 
Q 4128 841 3676 375 
Q 3225 -91 2344 -91 
Q 1459 -91 1007 375 
Q 556 841 556 1753 
L 556 4666 
z
" transform="scale(0.015625)"/>
       <path id="DejaVuSans-74" d="M 1172 4494 
L 1172 3500 
L 2356 3500 
L 2356 3053 
L 1172 3053 
L 1172 1153 
Q 1172 725 1289 603 
Q 1406 481 1766 481 
L 2356 481 
L 2356 0 
L 1766 0 
Q 1100 0 847 248 
Q 594 497 594 1153 
L 594 3053 
L 172 3053 
L 172 3500 
L 594 3500 
L 594 4494 
L 1172 4494 
z
" transform="scale(0.015625)"/>
       <path id="DejaVuSans-68" d="M 3513 2113 
L 3513 0 
L 2938 0 
L 2938 2094 
Q 2938 2591 2744 2837 
Q 2550 3084 2163 3084 
Q 1697 3084 1428 2787 
Q 1159 2491 1159 1978 
L 1159 0 
L 581 0 
L 581 4863 
L 1159 4863 
L 1159 2956 
Q 1366 3272 1645 3428 
Q 1925 3584 2291 3584 
Q 2894 3584 3203 3211 
Q 3513 2838 3513 2113 
z
" transform="scale(0.015625)"/>
       <path id="DejaVuSans-72" d="M 2631 2963 
Q 2534 3019 2420 3045 
Q 2306 3072 2169 3072 
Q 1681 3072 1420 2755 
Q 1159 2438 1159 1844 
L 1159 0 
L 581 0 
L 581 3500 
L 1159 3500 
L 1159 2956 
Q 1341 3275 1631 3429 
Q 1922 3584 2338 3584 
Q 2397 3584 2469 3576 
Q 2541 3569 2628 3553 
L 2631 2963 
z
" transform="scale(0.015625)"/>
      </defs>
      <use xlink:href="#DejaVuSans-53"/>
      <use xlink:href="#DejaVuSans-70" transform="translate(63.476562 0)"/>
      <use xlink:href="#DejaVuSans-65" transform="translate(126.953125 0)"/>
      <use xlink:href="#DejaVuSans-65" transform="translate(188.476562 0)"/>
      <use xlink:href="#DejaVuSans-64" transform="translate(250 0)"/>
      <use xlink:href="#DejaVuSans-75" transform="translate(313.476562 0)"/>
      <use xlink:href="#DejaVuSans-70" transform="translate(376.855469 0)"/>
      <use xlink:href="#DejaVuSans-20" transform="translate(440.332031 0)"/>
      <use xlink:href="#DejaVuSans-76" transform="translate(472.119141 0)"/>
      <use xlink:href="#DejaVuSans-73" transform="translate(531.298828 0)"/>
      <use xlink:href="#DejaVuSans-20" transform="translate(583.398438 0)"/>
      <use xlink:href="#DejaVuSans-31" transform="translate(615.185547 0)"/>
      <use xlink:href="#DejaVuSans-20" transform="translate(678.808594 0)"/>
      <use xlink:href="#DejaVuSans-43" transform="translate(710.595703 0)"/>
      <use xlink:href="#DejaVuSans-50" transform="translate(780.419922 0)"/>
      <use xlink:href="#DejaVuSans-55" transform="translate(840.722656 0)"/>
      <use xlink:href="#DejaVuSans-20" transform="translate(913.916016 0)"/>
      <use xlink:href="#DejaVuSans-74" transform="translate(945.703125 0)"/>
      <use xlink:href="#DejaVuSans-68" transform="translate(984.912109 0)"/>
      <use xlink:href="#DejaVuSans-72" transform="translate(1048.291016 0)"/>
      <use xlink:href="#DejaVuSans-65" transform="translate(1087.154297 0)"/>
      <use xlink:href="#DejaVuSans-61" transform="translate(1148.677734 0)"/>
      <use xlink:href="#DejaVuSans-64" transform="translate(1209.957031 0)"/>
     </g>
    </g>
   </g>
   <g id="line2d_34">
    <path d="M 105.395798 113.39587 
L 191.949692 210.228061 
L 242.580473 158.488287 
L 278.503585 200.38209 
L 306.367715 202.034461 
L 329.134367 213.131843 
L 348.383297 191.316415 
L 365.057478 186.00637 
L 379.765149 219.736003 
L 392.921608 174.093125 
L 404.823074 179.687336 
L 415.68826 163.305767 
L 425.683263 153.909449 
L 434.93719 170.432375 
L 443.55239 164.555467 
L 451.611372 228.937093 
L 459.181621 219.737162 
L 466.319042 239.332862 
L 473.070464 235.271694 
L 479.475502 212.610575 
L 485.567972 230.417721 
L 491.376967 230.709221 
L 496.927698 228.245075 
L 502.242154 226.431622 
L 507.339632 218.483386 
L 512.237157 217.068829 
L 516.949824 220.167063 
L 521.491084 224.328548 
L 525.872968 223.324241 
L 530.106284 214.322479 
L 534.200778 225.505237 
L 538.165265 221.703455 
L 542.007749 223.162231 
L 545.735515 219.495707 
L 549.355214 210.509348 
L 552.872936 218.33631 
L 556.29427 218.977832 
L 559.624357 220.339056 
L 562.867939 214.691362 
L 566.029395 225.412032 
L 569.112784 218.680538 
L 572.121866 216.783 
L 575.06014 211.961263 
L 577.930861 218.532179 
L 580.737066 218.670826 
L 583.481591 217.973027 
L 586.16709 216.794643 
L 588.796047 215.590223 
L 591.370796 234.484603 
L 593.893525 216.035856 
L 596.366297 213.521504 
L 598.79105 222.071377 
L 601.169615 216.00709 
L 603.503718 208.263675 
L 605.794991 215.70934 
L 608.044977 221.937111 
L 610.255139 217.802091 
L 612.426861 214.224895 
L 614.561458 202.350996 
L 616.660177 216.048841 
L 618.724206 220.45835 
L 620.754671 233.718462 
L 622.752648 211.526163 
L 624.719159 218.572527 
L 626.65518 229.241482 
L 628.561643 217.755723 
L 630.439436 221.184048 
L 632.289408 224.084014 
L 634.112373 218.93509 
L 635.909107 220.543333 
L 637.680355 219.919848 
L 639.426829 220.690572 
L 641.149214 213.603961 
L 642.848163 218.145158 
L 644.524307 217.945666 
L 646.17825 213.111674 
L 647.810573 219.48578 
L 649.421832 216.621581 
L 651.012565 212.062293 
L 652.583289 215.891115 
L 654.1345 215.416545 
L 655.666677 227.4056 
L 657.180282 218.703235 
L 658.675759 212.237728 
L 660.153538 218.573764 
L 661.614033 215.037251 
L 663.057643 223.812305 
L 664.484754 227.760745 
L 665.89574 220.151332 
L 667.290959 223.223386 
L 668.670762 219.817431 
L 670.035485 218.796071 
L 671.385453 215.256224 
L 672.720983 218.830403 
L 674.042381 234.955678 
L 675.349941 218.860343 
L 676.643951 218.565885 
L 677.924689 219.754476 
L 679.192425 213.114218 
L 680.447419 218.815265 
" clip-path="url(#pf4c20ee129)" style="fill: none; stroke: #1f77b4; stroke-width: 1.5; stroke-linecap: square"/>
   </g>
   <g id="line2d_35">
    <path d="M 105.395798 370.371273 
L 191.949692 234.263996 
L 242.580473 95.074917 
L 278.503585 59.827386 
L 306.367715 92.400829 
L 329.134367 55.189079 
L 348.383297 55.728456 
L 365.057478 119.972976 
L 379.765149 128.096418 
L 392.921608 105.11443 
L 404.823074 81.727776 
L 415.68826 113.360846 
L 425.683263 88.413545 
L 434.93719 62.587587 
L 443.55239 78.537371 
L 451.611372 186.266475 
L 459.181621 181.188773 
L 466.319042 199.516977 
L 473.070464 185.9865 
L 479.475502 201.488525 
L 485.567972 178.276553 
L 491.376967 192.273722 
L 496.927698 187.086855 
L 502.242154 185.956782 
L 507.339632 172.783886 
L 512.237157 176.470773 
L 516.949824 178.929305 
L 521.491084 177.25394 
L 525.872968 179.511371 
L 530.106284 166.284646 
L 534.200778 167.665219 
L 538.165265 162.446099 
L 542.007749 198.746165 
L 545.735515 176.808034 
L 549.355214 165.086352 
L 552.872936 177.550127 
L 556.29427 167.266556 
L 559.624357 174.737905 
L 562.867939 166.725424 
L 566.029395 171.253402 
L 569.112784 166.380471 
L 572.121866 169.792496 
L 575.06014 159.66744 
L 577.930861 169.897111 
L 580.737066 176.00476 
L 583.481591 164.164697 
L 586.16709 170.590565 
L 588.796047 181.928163 
L 591.370796 170.415202 
L 593.893525 177.963719 
L 596.366297 162.90845 
L 598.79105 163.188528 
L 601.169615 169.098303 
L 603.503718 160.806672 
L 605.794991 164.188493 
L 608.044977 160.458976 
L 610.255139 162.45473 
L 612.426861 170.557886 
L 614.561458 148.698092 
L 616.660177 170.306354 
L 618.724206 172.660496 
L 620.754671 161.772381 
L 622.752648 162.64813 
L 624.719159 175.74601 
L 626.65518 170.798603 
L 628.561643 164.928067 
L 630.439436 175.389652 
L 632.289408 171.893917 
L 634.112373 167.27544 
L 635.909107 164.841787 
L 637.680355 164.467115 
L 639.426829 162.416363 
L 641.149214 165.374359 
L 642.848163 160.825207 
L 644.524307 164.948475 
L 646.17825 171.273054 
L 647.810573 182.905231 
L 649.421832 169.385483 
L 651.012565 169.436168 
L 652.583289 179.747311 
L 654.1345 169.293311 
L 655.666677 159.891792 
L 657.180282 165.321583 
L 658.675759 158.536955 
L 660.153538 166.062446 
L 661.614033 160.158763 
L 663.057643 179.40819 
L 664.484754 171.361822 
L 665.89574 166.057543 
L 667.290959 167.846546 
L 668.670762 172.11981 
L 670.035485 169.941959 
L 671.385453 161.134999 
L 672.720983 166.479006 
L 674.042381 164.864184 
L 675.349941 173.230952 
L 676.643951 170.310853 
L 677.924689 167.528042 
L 679.192425 164.212701 
L 680.447419 163.237145 
" clip-path="url(#pf4c20ee129)" style="fill: none; stroke: #ff7f0e; stroke-width: 1.5; stroke-linecap: square"/>
   </g>
   <g id="line2d_36">
    <path d="M 105.395798 238.614891 
L 191.949692 244.887827 
L 242.580473 43.236727 
L 278.503585 160.450151 
L 306.367715 67.33911 
L 329.134367 135.121795 
L 348.383297 179.296318 
L 365.057478 141.825497 
L 379.765149 140.23046 
L 392.921608 91.743242 
L 404.823074 103.633436 
L 415.68826 89.207477 
L 425.683263 81.144552 
L 434.93719 134.920427 
L 443.55239 100.827868 
L 451.611372 182.623741 
L 459.181621 186.218962 
L 466.319042 180.834741 
L 473.070464 188.042425 
L 479.475502 171.248708 
L 485.567972 191.981097 
L 491.376967 181.699659 
L 496.927698 189.598241 
L 502.242154 192.570526 
L 507.339632 190.511217 
L 512.237157 183.660039 
L 516.949824 177.177142 
L 521.491084 181.647904 
L 525.872968 181.601744 
L 530.106284 188.365543 
L 534.200778 170.974452 
L 538.165265 157.381162 
L 542.007749 180.69053 
L 545.735515 174.563377 
L 549.355214 165.331393 
L 552.872936 172.957485 
L 556.29427 177.452355 
L 559.624357 173.77662 
L 562.867939 174.684587 
L 566.029395 170.74734 
L 569.112784 170.843111 
L 572.121866 166.333241 
L 575.06014 157.372666 
L 577.930861 174.539423 
L 580.737066 171.948206 
L 583.481591 165.836818 
L 586.16709 174.20414 
L 588.796047 171.561769 
L 591.370796 170.624555 
L 593.893525 171.948213 
L 596.366297 166.023202 
L 598.79105 168.144806 
L 601.169615 173.177976 
L 603.503718 154.623435 
L 605.794991 166.70865 
L 608.044977 165.475076 
L 610.255139 174.162652 
L 612.426861 165.898598 
L 614.561458 152.914034 
L 616.660177 164.252204 
L 618.724206 167.09388 
L 620.754671 166.562673 
L 622.752648 155.599267 
L 624.719159 169.541688 
L 626.65518 164.913455 
L 628.561643 177.617937 
L 630.439436 168.478883 
L 632.289408 165.154978 
L 634.112373 164.87423 
L 635.909107 161.40669 
L 637.680355 176.371043 
L 639.426829 168.526945 
L 641.149214 170.823404 
L 642.848163 169.393192 
L 644.524307 166.762106 
L 646.17825 161.196253 
L 647.810573 161.618455 
L 649.421832 163.197806 
L 651.012565 162.168007 
L 652.583289 164.580618 
L 654.1345 170.968013 
L 655.666677 161.631554 
L 657.180282 164.874828 
L 658.675759 163.313602 
L 660.153538 175.182299 
L 661.614033 165.125569 
L 663.057643 171.594573 
L 664.484754 168.401089 
L 665.89574 168.152473 
L 667.290959 165.2086 
L 668.670762 166.394797 
L 670.035485 170.742087 
L 671.385453 162.708282 
L 672.720983 162.516534 
L 674.042381 169.979426 
L 675.349941 171.23954 
L 676.643951 171.939803 
L 677.924689 175.614713 
L 679.192425 161.217037 
L 680.447419 164.161268 
" clip-path="url(#pf4c20ee129)" style="fill: none; stroke: #2ca02c; stroke-width: 1.5; stroke-linecap: square"/>
   </g>
   <g id="line2d_37">
    <path d="M 105.395798 127.238444 
L 191.949692 220.099152 
L 242.580473 259.039997 
L 278.503585 48.669597 
L 306.367715 61.566544 
L 329.134367 88.165859 
L 348.383297 105.77293 
L 365.057478 125.754807 
L 379.765149 146.672526 
L 392.921608 120.497873 
L 404.823074 110.190266 
L 415.68826 112.460713 
L 425.683263 120.335819 
L 434.93719 118.897234 
L 443.55239 125.705276 
L 451.611372 225.930474 
L 459.181621 191.14089 
L 466.319042 206.572355 
L 473.070464 186.965715 
L 479.475502 188.54724 
L 485.567972 236.002762 
L 491.376967 202.072782 
L 496.927698 184.831104 
L 502.242154 218.340557 
L 507.339632 189.102362 
L 512.237157 184.01425 
L 516.949824 182.771348 
L 521.491084 186.770305 
L 525.872968 209.914777 
L 530.106284 216.351593 
L 534.200778 202.110279 
L 538.165265 179.284732 
L 542.007749 179.021142 
L 545.735515 174.596984 
L 549.355214 173.077704 
L 552.872936 180.715725 
L 556.29427 193.953344 
L 559.624357 182.643409 
L 562.867939 192.612166 
L 566.029395 193.393348 
L 569.112784 186.861917 
L 572.121866 197.845481 
L 575.06014 168.404622 
L 577.930861 174.384997 
L 580.737066 175.574961 
L 583.481591 185.232604 
L 586.16709 183.257275 
L 588.796047 174.689845 
L 591.370796 189.352831 
L 593.893525 183.412803 
L 596.366297 169.906389 
L 598.79105 186.486856 
L 601.169615 186.183939 
L 603.503718 175.943838 
L 605.794991 197.38514 
L 608.044977 177.878537 
L 610.255139 173.712059 
L 612.426861 189.97231 
L 614.561458 165.742891 
L 616.660177 188.372604 
L 618.724206 196.584973 
L 620.754671 180.631429 
L 622.752648 189.257356 
L 624.719159 175.594152 
L 626.65518 176.420474 
L 628.561643 185.213417 
L 630.439436 177.737713 
L 632.289408 177.765626 
L 634.112373 177.834938 
L 635.909107 171.785592 
L 637.680355 172.100811 
L 639.426829 172.153887 
L 641.149214 172.071149 
L 642.848163 180.8576 
L 644.524307 176.093241 
L 646.17825 175.255924 
L 647.810573 168.279701 
L 649.421832 169.709938 
L 651.012565 171.104808 
L 652.583289 173.727735 
L 654.1345 175.740749 
L 655.666677 173.021042 
L 657.180282 173.938901 
L 658.675759 168.751379 
L 660.153538 181.751491 
L 661.614033 171.697303 
L 663.057643 179.950908 
L 664.484754 181.961239 
L 665.89574 172.424218 
L 667.290959 179.643798 
L 668.670762 178.58283 
L 670.035485 176.241329 
L 671.385453 168.973379 
L 672.720983 177.307395 
L 674.042381 177.940557 
L 675.349941 175.442605 
L 676.643951 179.560639 
L 677.924689 186.370822 
L 679.192425 175.622722 
L 680.447419 176.766442 
" clip-path="url(#pf4c20ee129)" style="fill: none; stroke: #d62728; stroke-width: 1.5; stroke-linecap: square"/>
   </g>
   <g id="patch_3">
    <path d="M 76.643217 386.728 
L 76.643217 26.88 
" style="fill: none; stroke: #000000; stroke-width: 0.8; stroke-linejoin: miter; stroke-linecap: square"/>
   </g>
   <g id="patch_4">
    <path d="M 709.2 386.728 
L 709.2 26.88 
" style="fill: none; stroke: #000000; stroke-width: 0.8; stroke-linejoin: miter; stroke-linecap: square"/>
   </g>
   <g id="patch_5">
    <path d="M 76.643217 386.728 
L 709.2 386.728 
" style="fill: none; stroke: #000000; stroke-width: 0.8; stroke-linejoin: miter; stroke-linecap: square"/>
   </g>
   <g id="patch_6">
    <path d="M 76.643217 26.88 
L 709.2 26.88 
" style="fill: none; stroke: #000000; stroke-width: 0.8; stroke-linejoin: miter; stroke-linecap: square"/>
   </g>
   <g id="text_14">
    <!-- CPU Speedup -->
    <g transform="translate(352.393483 20.88) scale(0.12 -0.12)">
     <use xlink:href="#DejaVuSans-43"/>
     <use xlink:href="#DejaVuSans-50" transform="translate(69.824219 0)"/>
     <use xlink:href="#DejaVuSans-55" transform="translate(130.126953 0)"/>
     <use xlink:href="#DejaVuSans-20" transform="translate(203.320312 0)"/>
     <use xlink:href="#DejaVuSans-53" transform="translate(235.107422 0)"/>
     <use xlink:href="#DejaVuSans-70" transform="translate(298.583984 0)"/>
     <use xlink:href="#DejaVuSans-65" transform="translate(362.060547 0)"/>
     <use xlink:href="#DejaVuSans-65" transform="translate(423.583984 0)"/>
     <use xlink:href="#DejaVuSans-64" transform="translate(485.107422 0)"/>
     <use xlink:href="#DejaVuSans-75" transform="translate(548.583984 0)"/>
     <use xlink:href="#DejaVuSans-70" transform="translate(611.962891 0)"/>
    </g>
   </g>
   <g id="legend_1">
    <g id="patch_7">
     <path d="M 616.314063 93.5925 
L 702.2 93.5925 
Q 704.2 93.5925 704.2 91.5925 
L 704.2 33.88 
Q 704.2 31.88 702.2 31.88 
L 616.314063 31.88 
Q 614.314063 31.88 614.314063 33.88 
L 614.314063 91.5925 
Q 614.314063 93.5925 616.314063 93.5925 
z
" style="fill: #ffffff; opacity: 0.8; stroke: #cccccc; stroke-linejoin: miter"/>
    </g>
    <g id="line2d_38">
     <path d="M 618.314063 39.978438 
L 628.314063 39.978438 
L 638.314063 39.978438 
" style="fill: none; stroke: #1f77b4; stroke-width: 1.5; stroke-linecap: square"/>
    </g>
    <g id="text_15">
     <!-- 2 threads -->
     <g transform="translate(646.314063 43.478438) scale(0.1 -0.1)">
      <use xlink:href="#DejaVuSans-32"/>
      <use xlink:href="#DejaVuSans-20" transform="translate(63.623047 0)"/>
      <use xlink:href="#DejaVuSans-74" transform="translate(95.410156 0)"/>
      <use xlink:href="#DejaVuSans-68" transform="translate(134.619141 0)"/>
      <use xlink:href="#DejaVuSans-72" transform="translate(197.998047 0)"/>
      <use xlink:href="#DejaVuSans-65" transform="translate(236.861328 0)"/>
      <use xlink:href="#DejaVuSans-61" transform="translate(298.384766 0)"/>
      <use xlink:href="#DejaVuSans-64" transform="translate(359.664062 0)"/>
      <use xlink:href="#DejaVuSans-73" transform="translate(423.140625 0)"/>
     </g>
    </g>
    <g id="line2d_39">
     <path d="M 618.314063 54.656563 
L 628.314063 54.656563 
L 638.314063 54.656563 
" style="fill: none; stroke: #ff7f0e; stroke-width: 1.5; stroke-linecap: square"/>
    </g>
    <g id="text_16">
     <!-- 4 threads -->
     <g transform="translate(646.314063 58.156563) scale(0.1 -0.1)">
      <use xlink:href="#DejaVuSans-34"/>
      <use xlink:href="#DejaVuSans-20" transform="translate(63.623047 0)"/>
      <use xlink:href="#DejaVuSans-74" transform="translate(95.410156 0)"/>
      <use xlink:href="#DejaVuSans-68" transform="translate(134.619141 0)"/>
      <use xlink:href="#DejaVuSans-72" transform="translate(197.998047 0)"/>
      <use xlink:href="#DejaVuSans-65" transform="translate(236.861328 0)"/>
      <use xlink:href="#DejaVuSans-61" transform="translate(298.384766 0)"/>
      <use xlink:href="#DejaVuSans-64" transform="translate(359.664062 0)"/>
      <use xlink:href="#DejaVuSans-73" transform="translate(423.140625 0)"/>
     </g>
    </g>
    <g id="line2d_40">
     <path d="M 618.314063 69.334688 
L 628.314063 69.334688 
L 638.314063 69.334688 
" style="fill: none; stroke: #2ca02c; stroke-width: 1.5; stroke-linecap: square"/>
    </g>
    <g id="text_17">
     <!-- 8 threads -->
     <g transform="translate(646.314063 72.834688) scale(0.1 -0.1)">
      <use xlink:href="#DejaVuSans-38"/>
      <use xlink:href="#DejaVuSans-20" transform="translate(63.623047 0)"/>
      <use xlink:href="#DejaVuSans-74" transform="translate(95.410156 0)"/>
      <use xlink:href="#DejaVuSans-68" transform="translate(134.619141 0)"/>
      <use xlink:href="#DejaVuSans-72" transform="translate(197.998047 0)"/>
      <use xlink:href="#DejaVuSans-65" transform="translate(236.861328 0)"/>
      <use xlink:href="#DejaVuSans-61" transform="translate(298.384766 0)"/>
      <use xlink:href="#DejaVuSans-64" transform="translate(359.664062 0)"/>
      <use xlink:href="#DejaVuSans-73" transform="translate(423.140625 0)"/>
     </g>
    </g>
    <g id="line2d_41">
     <path d="M 618.314063 84.012813 
L 628.314063 84.012813 
L 638.314063 84.012813 
" style="fill: none; stroke: #d62728; stroke-width: 1.5; stroke-linecap: square"/>
    </g>
    <g id="text_18">
     <!-- 16 threads -->
     <g transform="translate(646.314063 87.512813) scale(0.1 -0.1)">
      <use xlink:href="#DejaVuSans-31"/>
      <use xlink:href="#DejaVuSans-36" transform="translate(63.623047 0)"/>
      <use xlink:href="#DejaVuSans-20" transform="translate(127.246094 0)"/>
      <use xlink:href="#DejaVuSans-74" transform="translate(159.033203 0)"/>
      <use xlink:href="#DejaVuSans-68" transform="translate(198.242188 0)"/>
      <use xlink:href="#DejaVuSans-72" transform="translate(261.621094 0)"/>
      <use xlink:href="#DejaVuSans-65" transform="translate(300.484375 0)"/>
      <use xlink:href="#DejaVuSans-61" transform="translate(362.007812 0)"/>
      <use xlink:href="#DejaVuSans-64" transform="translate(423.287109 0)"/>
      <use xlink:href="#DejaVuSans-73" transform="translate(486.763672 0)"/>
     </g>
    </g>
   </g>
  </g>
 </g>
 <defs>
  <clipPath id="pf4c20ee129">
   <rect x="76.643217" y="26.88" width="632.556783" height="359.848"/>
  </clipPath>
 </defs>
</svg>
