<?xml version="1.0" encoding="utf-8" standalone="no"?>
<!DOCTYPE svg PUBLIC "-//W3C//DTD SVG 1.1//EN"
  "http://www.w3.org/Graphics/SVG/1.1/DTD/svg11.dtd">
<svg xmlns:xlink="http://www.w3.org/1999/xlink" width="720pt" height="432pt" viewBox="0 0 720 432" xmlns="http://www.w3.org/2000/svg" version="1.1">
 <metadata>
  <rdf:RDF xmlns:dc="http://purl.org/dc/elements/1.1/" xmlns:cc="http://creativecommons.org/ns#" xmlns:rdf="http://www.w3.org/1999/02/22-rdf-syntax-ns#">
   <cc:Work>
    <dc:type rdf:resource="http://purl.org/dc/dcmitype/StillImage"/>
    <dc:date>2026-05-06T15:41:10.012280</dc:date>
    <dc:format>image/svg+xml</dc:format>
    <dc:creator>
     <cc:Agent>
      <dc:title>Matplotlib v3.10.9, https://matplotlib.org/</dc:title>
     </cc:Agent>
    </dc:creator>
   </cc:Work>
  </rdf:RDF>
 </metadata>
 <defs>
  <style type="text/css">*{stroke-linejoin: round; stroke-linecap: butt}</style>
 </defs>
 <g id="figure_1">
  <g id="patch_1">
   <path d="M 0 432 
L 720 432 
L 720 0 
L 0 0 
z
" style="fill: #ffffff"/>
  </g>
  <g id="axes_1">
   <g id="patch_2">
    <path d="M 38.27 390.04 
L 709.2 390.04 
L 709.2 26.88 
L 38.27 26.88 
z
" style="fill: #ffffff"/>
   </g>
   <g id="matplotlib.axis_1">
    <g id="xtick_1">
     <g id="line2d_1">
      <path d="M 136.537525 390.04 
L 136.537525 26.88 
" clip-path="url(#p5a4ada1bb2)" style="fill: none; stroke: #b0b0b0; stroke-opacity: 0.3; stroke-width: 0.8; stroke-linecap: square"/>
     </g>
     <g id="line2d_2">
      <defs>
       <path id="m5efc3b3231" d="M 0 0 
L 0 3.5 
" style="stroke: #000000; stroke-width: 0.8"/>
      </defs>
      <g>
       <use xlink:href="#m5efc3b3231" x="136.537525" y="390.04" style="stroke: #000000; stroke-width: 0.8"/>
      </g>
     </g>
     <g id="text_1">
      <!-- 0.2 -->
      <g transform="translate(128.585963 404.638438) scale(0.1 -0.1)">
       <defs>
        <path id="DejaVuSans-30" d="M 2034 4250 
Q 1547 4250 1301 3770 
Q 1056 3291 1056 2328 
Q 1056 1369 1301 889 
Q 1547 409 2034 409 
Q 2525 409 2770 889 
Q 3016 1369 3016 2328 
Q 3016 3291 2770 3770 
Q 2525 4250 2034 4250 
z
M 2034 4750 
Q 2819 4750 3233 4129 
Q 3647 3509 3647 2328 
Q 3647 1150 3233 529 
Q 2819 -91 2034 -91 
Q 1250 -91 836 529 
Q 422 1150 422 2328 
Q 422 3509 836 4129 
Q 1250 4750 2034 4750 
z
" transform="scale(0.015625)"/>
        <path id="DejaVuSans-2e" d="M 684 794 
L 1344 794 
L 1344 0 
L 684 0 
L 684 794 
z
" transform="scale(0.015625)"/>
        <path id="DejaVuSans-32" d="M 1228 531 
L 3431 531 
L 3431 0 
L 469 0 
L 469 531 
Q 828 903 1448 1529 
Q 2069 2156 2228 2338 
Q 2531 2678 2651 2914 
Q 2772 3150 2772 3378 
Q 2772 3750 2511 3984 
Q 2250 4219 1831 4219 
Q 1534 4219 1204 4116 
Q 875 4013 500 3803 
L 500 4441 
Q 881 4594 1212 4672 
Q 1544 4750 1819 4750 
Q 2544 4750 2975 4387 
Q 3406 4025 3406 3419 
Q 3406 3131 3298 2873 
Q 3191 2616 2906 2266 
Q 2828 2175 2409 1742 
Q 1991 1309 1228 531 
z
" transform="scale(0.015625)"/>
       </defs>
       <use xlink:href="#DejaVuSans-30"/>
       <use xlink:href="#DejaVuSans-2e" transform="translate(63.623047 0)"/>
       <use xlink:href="#DejaVuSans-32" transform="translate(95.410156 0)"/>
      </g>
     </g>
    </g>
    <g id="xtick_2">
     <g id="line2d_3">
      <path d="M 272.078939 390.04 
L 272.078939 26.88 
" clip-path="url(#p5a4ada1bb2)" style="fill: none; stroke: #b0b0b0; stroke-opacity: 0.3; stroke-width: 0.8; stroke-linecap: square"/>
     </g>
     <g id="line2d_4">
      <g>
       <use xlink:href="#m5efc3b3231" x="272.078939" y="390.04" style="stroke: #000000; stroke-width: 0.8"/>
      </g>
     </g>
     <g id="text_2">
      <!-- 0.4 -->
      <g transform="translate(264.127377 404.638438) scale(0.1 -0.1)">
       <defs>
        <path id="DejaVuSans-34" d="M 2419 4116 
L 825 1625 
L 2419 1625 
L 2419 4116 
z
M 2253 4666 
L 3047 4666 
L 3047 1625 
L 3713 1625 
L 3713 1100 
L 3047 1100 
L 3047 0 
L 2419 0 
L 2419 1100 
L 313 1100 
L 313 1709 
L 2253 4666 
z
" transform="scale(0.015625)"/>
       </defs>
       <use xlink:href="#DejaVuSans-30"/>
       <use xlink:href="#DejaVuSans-2e" transform="translate(63.623047 0)"/>
       <use xlink:href="#DejaVuSans-34" transform="translate(95.410156 0)"/>
      </g>
     </g>
    </g>
    <g id="xtick_3">
     <g id="line2d_5">
      <path d="M 407.620354 390.04 
L 407.620354 26.88 
" clip-path="url(#p5a4ada1bb2)" style="fill: none; stroke: #b0b0b0; stroke-opacity: 0.3; stroke-width: 0.8; stroke-linecap: square"/>
     </g>
     <g id="line2d_6">
      <g>
       <use xlink:href="#m5efc3b3231" x="407.620354" y="390.04" style="stroke: #000000; stroke-width: 0.8"/>
      </g>
     </g>
     <g id="text_3">
      <!-- 0.6 -->
      <g transform="translate(399.668791 404.638438) scale(0.1 -0.1)">
       <defs>
        <path id="DejaVuSans-36" d="M 2113 2584 
Q 1688 2584 1439 2293 
Q 1191 2003 1191 1497 
Q 1191 994 1439 701 
Q 1688 409 2113 409 
Q 2538 409 2786 701 
Q 3034 994 3034 1497 
Q 3034 2003 2786 2293 
Q 2538 2584 2113 2584 
z
M 3366 4563 
L 3366 3988 
Q 3128 4100 2886 4159 
Q 2644 4219 2406 4219 
Q 1781 4219 1451 3797 
Q 1122 3375 1075 2522 
Q 1259 2794 1537 2939 
Q 1816 3084 2150 3084 
Q 2853 3084 3261 2657 
Q 3669 2231 3669 1497 
Q 3669 778 3244 343 
Q 2819 -91 2113 -91 
Q 1303 -91 875 529 
Q 447 1150 447 2328 
Q 447 3434 972 4092 
Q 1497 4750 2381 4750 
Q 2619 4750 2861 4703 
Q 3103 4656 3366 4563 
z
" transform="scale(0.015625)"/>
       </defs>
       <use xlink:href="#DejaVuSans-30"/>
       <use xlink:href="#DejaVuSans-2e" transform="translate(63.623047 0)"/>
       <use xlink:href="#DejaVuSans-36" transform="translate(95.410156 0)"/>
      </g>
     </g>
    </g>
    <g id="xtick_4">
     <g id="line2d_7">
      <path d="M 543.161768 390.04 
L 543.161768 26.88 
" clip-path="url(#p5a4ada1bb2)" style="fill: none; stroke: #b0b0b0; stroke-opacity: 0.3; stroke-width: 0.8; stroke-linecap: square"/>
     </g>
     <g id="line2d_8">
      <g>
       <use xlink:href="#m5efc3b3231" x="543.161768" y="390.04" style="stroke: #000000; stroke-width: 0.8"/>
      </g>
     </g>
     <g id="text_4">
      <!-- 0.8 -->
      <g transform="translate(535.210205 404.638438) scale(0.1 -0.1)">
       <defs>
        <path id="DejaVuSans-38" d="M 2034 2216 
Q 1584 2216 1326 1975 
Q 1069 1734 1069 1313 
Q 1069 891 1326 650 
Q 1584 409 2034 409 
Q 2484 409 2743 651 
Q 3003 894 3003 1313 
Q 3003 1734 2745 1975 
Q 2488 2216 2034 2216 
z
M 1403 2484 
Q 997 2584 770 2862 
Q 544 3141 544 3541 
Q 544 4100 942 4425 
Q 1341 4750 2034 4750 
Q 2731 4750 3128 4425 
Q 3525 4100 3525 3541 
Q 3525 3141 3298 2862 
Q 3072 2584 2669 2484 
Q 3125 2378 3379 2068 
Q 3634 1759 3634 1313 
Q 3634 634 3220 271 
Q 2806 -91 2034 -91 
Q 1263 -91 848 271 
Q 434 634 434 1313 
Q 434 1759 690 2068 
Q 947 2378 1403 2484 
z
M 1172 3481 
Q 1172 3119 1398 2916 
Q 1625 2713 2034 2713 
Q 2441 2713 2670 2916 
Q 2900 3119 2900 3481 
Q 2900 3844 2670 4047 
Q 2441 4250 2034 4250 
Q 1625 4250 1398 4047 
Q 1172 3844 1172 3481 
z
" transform="scale(0.015625)"/>
       </defs>
       <use xlink:href="#DejaVuSans-30"/>
       <use xlink:href="#DejaVuSans-2e" transform="translate(63.623047 0)"/>
       <use xlink:href="#DejaVuSans-38" transform="translate(95.410156 0)"/>
      </g>
     </g>
    </g>
    <g id="xtick_5">
     <g id="line2d_9">
      <path d="M 678.703182 390.04 
L 678.703182 26.88 
" clip-path="url(#p5a4ada1bb2)" style="fill: none; stroke: #b0b0b0; stroke-opacity: 0.3; stroke-width: 0.8; stroke-linecap: square"/>
     </g>
     <g id="line2d_10">
      <g>
       <use xlink:href="#m5efc3b3231" x="678.703182" y="390.04" style="stroke: #000000; stroke-width: 0.8"/>
      </g>
     </g>
     <g id="text_5">
      <!-- 1.0 -->
      <g transform="translate(670.751619 404.638438) scale(0.1 -0.1)">
       <defs>
        <path id="DejaVuSans-31" d="M 794 531 
L 1825 531 
L 1825 4091 
L 703 3866 
L 703 4441 
L 1819 4666 
L 2450 4666 
L 2450 531 
L 3481 531 
L 3481 0 
L 794 0 
L 794 531 
z
" transform="scale(0.015625)"/>
       </defs>
       <use xlink:href="#DejaVuSans-31"/>
       <use xlink:href="#DejaVuSans-2e" transform="translate(63.623047 0)"/>
       <use xlink:href="#DejaVuSans-30" transform="translate(95.410156 0)"/>
      </g>
     </g>
    </g>
    <g id="text_6">
     <!-- Signal size -->
     <g transform="translate(347.092031 418.316562) scale(0.1 -0.1)">
      <defs>
       <path id="DejaVuSans-53" d="M 3425 4513 
L 3425 3897 
Q 3066 4069 2747 4153 
Q 2428 4238 2131 4238 
Q 1616 4238 1336 4038 
Q 1056 3838 1056 3469 
Q 1056 3159 1242 3001 
Q 1428 2844 1947 2747 
L 2328 2669 
Q 3034 2534 3370 2195 
Q 3706 1856 3706 1288 
Q 3706 609 3251 259 
Q 2797 -91 1919 -91 
Q 1588 -91 1214 -16 
Q 841 59 441 206 
L 441 856 
Q 825 641 1194 531 
Q 1563 422 1919 422 
Q 2459 422 2753 634 
Q 3047 847 3047 1241 
Q 3047 1584 2836 1778 
Q 2625 1972 2144 2069 
L 1759 2144 
Q 1053 2284 737 2584 
Q 422 2884 422 3419 
Q 422 4038 858 4394 
Q 1294 4750 2059 4750 
Q 2388 4750 2728 4690 
Q 3069 4631 3425 4513 
z
" transform="scale(0.015625)"/>
       <path id="DejaVuSans-69" d="M 603 3500 
L 1178 3500 
L 1178 0 
L 603 0 
L 603 3500 
z
M 603 4863 
L 1178 4863 
L 1178 4134 
L 603 4134 
L 603 4863 
z
" transform="scale(0.015625)"/>
       <path id="DejaVuSans-67" d="M 2906 1791 
Q 2906 2416 2648 2759 
Q 2391 3103 1925 3103 
Q 1463 3103 1205 2759 
Q 947 2416 947 1791 
Q 947 1169 1205 825 
Q 1463 481 1925 481 
Q 2391 481 2648 825 
Q 2906 1169 2906 1791 
z
M 3481 434 
Q 3481 -459 3084 -895 
Q 2688 -1331 1869 -1331 
Q 1566 -1331 1297 -1286 
Q 1028 -1241 775 -1147 
L 775 -588 
Q 1028 -725 1275 -790 
Q 1522 -856 1778 -856 
Q 2344 -856 2625 -561 
Q 2906 -266 2906 331 
L 2906 616 
Q 2728 306 2450 153 
Q 2172 0 1784 0 
Q 1141 0 747 490 
Q 353 981 353 1791 
Q 353 2603 747 3093 
Q 1141 3584 1784 3584 
Q 2172 3584 2450 3431 
Q 2728 3278 2906 2969 
L 2906 3500 
L 3481 3500 
L 3481 434 
z
" transform="scale(0.015625)"/>
       <path id="DejaVuSans-6e" d="M 3513 2113 
L 3513 0 
L 2938 0 
L 2938 2094 
Q 2938 2591 2744 2837 
Q 2550 3084 2163 3084 
Q 1697 3084 1428 2787 
Q 1159 2491 1159 1978 
L 1159 0 
L 581 0 
L 581 3500 
L 1159 3500 
L 1159 2956 
Q 1366 3272 1645 3428 
Q 1925 3584 2291 3584 
Q 2894 3584 3203 3211 
Q 3513 2838 3513 2113 
z
" transform="scale(0.015625)"/>
       <path id="DejaVuSans-61" d="M 2194 1759 
Q 1497 1759 1228 1600 
Q 959 1441 959 1056 
Q 959 750 1161 570 
Q 1363 391 1709 391 
Q 2188 391 2477 730 
Q 2766 1069 2766 1631 
L 2766 1759 
L 2194 1759 
z
M 3341 1997 
L 3341 0 
L 2766 0 
L 2766 531 
Q 2569 213 2275 61 
Q 1981 -91 1556 -91 
Q 1019 -91 701 211 
Q 384 513 384 1019 
Q 384 1609 779 1909 
Q 1175 2209 1959 2209 
L 2766 2209 
L 2766 2266 
Q 2766 2663 2505 2880 
Q 2244 3097 1772 3097 
Q 1472 3097 1187 3025 
Q 903 2953 641 2809 
L 641 3341 
Q 956 3463 1253 3523 
Q 1550 3584 1831 3584 
Q 2591 3584 2966 3190 
Q 3341 2797 3341 1997 
z
" transform="scale(0.015625)"/>
       <path id="DejaVuSans-6c" d="M 603 4863 
L 1178 4863 
L 1178 0 
L 603 0 
L 603 4863 
z
" transform="scale(0.015625)"/>
       <path id="DejaVuSans-20" transform="scale(0.015625)"/>
       <path id="DejaVuSans-73" d="M 2834 3397 
L 2834 2853 
Q 2591 2978 2328 3040 
Q 2066 3103 1784 3103 
Q 1356 3103 1142 2972 
Q 928 2841 928 2578 
Q 928 2378 1081 2264 
Q 1234 2150 1697 2047 
L 1894 2003 
Q 2506 1872 2764 1633 
Q 3022 1394 3022 966 
Q 3022 478 2636 193 
Q 2250 -91 1575 -91 
Q 1294 -91 989 -36 
Q 684 19 347 128 
L 347 722 
Q 666 556 975 473 
Q 1284 391 1588 391 
Q 1994 391 2212 530 
Q 2431 669 2431 922 
Q 2431 1156 2273 1281 
Q 2116 1406 1581 1522 
L 1381 1569 
Q 847 1681 609 1914 
Q 372 2147 372 2553 
Q 372 3047 722 3315 
Q 1072 3584 1716 3584 
Q 2034 3584 2315 3537 
Q 2597 3491 2834 3397 
z
" transform="scale(0.015625)"/>
       <path id="DejaVuSans-7a" d="M 353 3500 
L 3084 3500 
L 3084 2975 
L 922 459 
L 3084 459 
L 3084 0 
L 275 0 
L 275 525 
L 2438 3041 
L 353 3041 
L 353 3500 
z
" transform="scale(0.015625)"/>
       <path id="DejaVuSans-65" d="M 3597 1894 
L 3597 1613 
L 953 1613 
Q 991 1019 1311 708 
Q 1631 397 2203 397 
Q 2534 397 2845 478 
Q 3156 559 3463 722 
L 3463 178 
Q 3153 47 2828 -22 
Q 2503 -91 2169 -91 
Q 1331 -91 842 396 
Q 353 884 353 1716 
Q 353 2575 817 3079 
Q 1281 3584 2069 3584 
Q 2775 3584 3186 3129 
Q 3597 2675 3597 1894 
z
M 3022 2063 
Q 3016 2534 2758 2815 
Q 2500 3097 2075 3097 
Q 1594 3097 1305 2825 
Q 1016 2553 972 2059 
L 3022 2063 
z
" transform="scale(0.015625)"/>
      </defs>
      <use xlink:href="#DejaVuSans-53"/>
      <use xlink:href="#DejaVuSans-69" transform="translate(63.476562 0)"/>
      <use xlink:href="#DejaVuSans-67" transform="translate(91.259766 0)"/>
      <use xlink:href="#DejaVuSans-6e" transform="translate(154.736328 0)"/>
      <use xlink:href="#DejaVuSans-61" transform="translate(218.115234 0)"/>
      <use xlink:href="#DejaVuSans-6c" transform="translate(279.394531 0)"/>
      <use xlink:href="#DejaVuSans-20" transform="translate(307.177734 0)"/>
      <use xlink:href="#DejaVuSans-73" transform="translate(338.964844 0)"/>
      <use xlink:href="#DejaVuSans-69" transform="translate(391.064453 0)"/>
      <use xlink:href="#DejaVuSans-7a" transform="translate(418.847656 0)"/>
      <use xlink:href="#DejaVuSans-65" transform="translate(471.337891 0)"/>
     </g>
    </g>
    <g id="text_7">
     <!-- 1e6 -->
     <g transform="translate(690.321875 417.316562) scale(0.1 -0.1)">
      <use xlink:href="#DejaVuSans-31"/>
      <use xlink:href="#DejaVuSans-65" transform="translate(63.623047 0)"/>
      <use xlink:href="#DejaVuSans-36" transform="translate(125.146484 0)"/>
     </g>
    </g>
   </g>
   <g id="matplotlib.axis_2">
    <g id="ytick_1">
     <g id="line2d_11">
      <path d="M 38.27 376.308815 
L 709.2 376.308815 
" clip-path="url(#p5a4ada1bb2)" style="fill: none; stroke: #b0b0b0; stroke-opacity: 0.3; stroke-width: 0.8; stroke-linecap: square"/>
     </g>
     <g id="line2d_12">
      <defs>
       <path id="meccfb2a029" d="M 0 0 
L -3.5 0 
" style="stroke: #000000; stroke-width: 0.8"/>
      </defs>
      <g>
       <use xlink:href="#meccfb2a029" x="38.27" y="376.308815" style="stroke: #000000; stroke-width: 0.8"/>
      </g>
     </g>
     <g id="text_8">
      <!-- 0 -->
      <g transform="translate(24.9075 380.108034) scale(0.1 -0.1)">
       <use xlink:href="#DejaVuSans-30"/>
      </g>
     </g>
    </g>
    <g id="ytick_2">
     <g id="line2d_13">
      <path d="M 38.27 322.030362 
L 709.2 322.030362 
" clip-path="url(#p5a4ada1bb2)" style="fill: none; stroke: #b0b0b0; stroke-opacity: 0.3; stroke-width: 0.8; stroke-linecap: square"/>
     </g>
     <g id="line2d_14">
      <g>
       <use xlink:href="#meccfb2a029" x="38.27" y="322.030362" style="stroke: #000000; stroke-width: 0.8"/>
      </g>
     </g>
     <g id="text_9">
      <!-- 1 -->
      <g transform="translate(24.9075 325.829581) scale(0.1 -0.1)">
       <use xlink:href="#DejaVuSans-31"/>
      </g>
     </g>
    </g>
    <g id="ytick_3">
     <g id="line2d_15">
      <path d="M 38.27 267.751909 
L 709.2 267.751909 
" clip-path="url(#p5a4ada1bb2)" style="fill: none; stroke: #b0b0b0; stroke-opacity: 0.3; stroke-width: 0.8; stroke-linecap: square"/>
     </g>
     <g id="line2d_16">
      <g>
       <use xlink:href="#meccfb2a029" x="38.27" y="267.751909" style="stroke: #000000; stroke-width: 0.8"/>
      </g>
     </g>
     <g id="text_10">
      <!-- 2 -->
      <g transform="translate(24.9075 271.551128) scale(0.1 -0.1)">
       <use xlink:href="#DejaVuSans-32"/>
      </g>
     </g>
    </g>
    <g id="ytick_4">
     <g id="line2d_17">
      <path d="M 38.27 213.473456 
L 709.2 213.473456 
" clip-path="url(#p5a4ada1bb2)" style="fill: none; stroke: #b0b0b0; stroke-opacity: 0.3; stroke-width: 0.8; stroke-linecap: square"/>
     </g>
     <g id="line2d_18">
      <g>
       <use xlink:href="#meccfb2a029" x="38.27" y="213.473456" style="stroke: #000000; stroke-width: 0.8"/>
      </g>
     </g>
     <g id="text_11">
      <!-- 3 -->
      <g transform="translate(24.9075 217.272674) scale(0.1 -0.1)">
       <defs>
        <path id="DejaVuSans-33" d="M 2597 2516 
Q 3050 2419 3304 2112 
Q 3559 1806 3559 1356 
Q 3559 666 3084 287 
Q 2609 -91 1734 -91 
Q 1441 -91 1130 -33 
Q 819 25 488 141 
L 488 750 
Q 750 597 1062 519 
Q 1375 441 1716 441 
Q 2309 441 2620 675 
Q 2931 909 2931 1356 
Q 2931 1769 2642 2001 
Q 2353 2234 1838 2234 
L 1294 2234 
L 1294 2753 
L 1863 2753 
Q 2328 2753 2575 2939 
Q 2822 3125 2822 3475 
Q 2822 3834 2567 4026 
Q 2313 4219 1838 4219 
Q 1578 4219 1281 4162 
Q 984 4106 628 3988 
L 628 4550 
Q 988 4650 1302 4700 
Q 1616 4750 1894 4750 
Q 2613 4750 3031 4423 
Q 3450 4097 3450 3541 
Q 3450 3153 3228 2886 
Q 3006 2619 2597 2516 
z
" transform="scale(0.015625)"/>
       </defs>
       <use xlink:href="#DejaVuSans-33"/>
      </g>
     </g>
    </g>
    <g id="ytick_5">
     <g id="line2d_19">
      <path d="M 38.27 159.195003 
L 709.2 159.195003 
" clip-path="url(#p5a4ada1bb2)" style="fill: none; stroke: #b0b0b0; stroke-opacity: 0.3; stroke-width: 0.8; stroke-linecap: square"/>
     </g>
     <g id="line2d_20">
      <g>
       <use xlink:href="#meccfb2a029" x="38.27" y="159.195003" style="stroke: #000000; stroke-width: 0.8"/>
      </g>
     </g>
     <g id="text_12">
      <!-- 4 -->
      <g transform="translate(24.9075 162.994221) scale(0.1 -0.1)">
       <use xlink:href="#DejaVuSans-34"/>
      </g>
     </g>
    </g>
    <g id="ytick_6">
     <g id="line2d_21">
      <path d="M 38.27 104.916549 
L 709.2 104.916549 
" clip-path="url(#p5a4ada1bb2)" style="fill: none; stroke: #b0b0b0; stroke-opacity: 0.3; stroke-width: 0.8; stroke-linecap: square"/>
     </g>
     <g id="line2d_22">
      <g>
       <use xlink:href="#meccfb2a029" x="38.27" y="104.916549" style="stroke: #000000; stroke-width: 0.8"/>
      </g>
     </g>
     <g id="text_13">
      <!-- 5 -->
      <g transform="translate(24.9075 108.715768) scale(0.1 -0.1)">
       <defs>
        <path id="DejaVuSans-35" d="M 691 4666 
L 3169 4666 
L 3169 4134 
L 1269 4134 
L 1269 2991 
Q 1406 3038 1543 3061 
Q 1681 3084 1819 3084 
Q 2600 3084 3056 2656 
Q 3513 2228 3513 1497 
Q 3513 744 3044 326 
Q 2575 -91 1722 -91 
Q 1428 -91 1123 -41 
Q 819 9 494 109 
L 494 744 
Q 775 591 1075 516 
Q 1375 441 1709 441 
Q 2250 441 2565 725 
Q 2881 1009 2881 1497 
Q 2881 1984 2565 2268 
Q 2250 2553 1709 2553 
Q 1456 2553 1204 2497 
Q 953 2441 691 2322 
L 691 4666 
z
" transform="scale(0.015625)"/>
       </defs>
       <use xlink:href="#DejaVuSans-35"/>
      </g>
     </g>
    </g>
    <g id="ytick_7">
     <g id="line2d_23">
      <path d="M 38.27 50.638096 
L 709.2 50.638096 
" clip-path="url(#p5a4ada1bb2)" style="fill: none; stroke: #b0b0b0; stroke-opacity: 0.3; stroke-width: 0.8; stroke-linecap: square"/>
     </g>
     <g id="line2d_24">
      <g>
       <use xlink:href="#meccfb2a029" x="38.27" y="50.638096" style="stroke: #000000; stroke-width: 0.8"/>
      </g>
     </g>
     <g id="text_14">
      <!-- 6 -->
      <g transform="translate(24.9075 54.437315) scale(0.1 -0.1)">
       <use xlink:href="#DejaVuSans-36"/>
      </g>
     </g>
    </g>
    <g id="text_15">
     <!-- Mean time (ms) -->
     <g transform="translate(18.827813 247.934219) rotate(-90) scale(0.1 -0.1)">
      <defs>
       <path id="DejaVuSans-4d" d="M 628 4666 
L 1569 4666 
L 2759 1491 
L 3956 4666 
L 4897 4666 
L 4897 0 
L 4281 0 
L 4281 4097 
L 3078 897 
L 2444 897 
L 1241 4097 
L 1241 0 
L 628 0 
L 628 4666 
z
" transform="scale(0.015625)"/>
       <path id="DejaVuSans-74" d="M 1172 4494 
L 1172 3500 
L 2356 3500 
L 2356 3053 
L 1172 3053 
L 1172 1153 
Q 1172 725 1289 603 
Q 1406 481 1766 481 
L 2356 481 
L 2356 0 
L 1766 0 
Q 1100 0 847 248 
Q 594 497 594 1153 
L 594 3053 
L 172 3053 
L 172 3500 
L 594 3500 
L 594 4494 
L 1172 4494 
z
" transform="scale(0.015625)"/>
       <path id="DejaVuSans-6d" d="M 3328 2828 
Q 3544 3216 3844 3400 
Q 4144 3584 4550 3584 
Q 5097 3584 5394 3201 
Q 5691 2819 5691 2113 
L 5691 0 
L 5113 0 
L 5113 2094 
Q 5113 2597 4934 2840 
Q 4756 3084 4391 3084 
Q 3944 3084 3684 2787 
Q 3425 2491 3425 1978 
L 3425 0 
L 2847 0 
L 2847 2094 
Q 2847 2600 2669 2842 
Q 2491 3084 2119 3084 
Q 1678 3084 1418 2786 
Q 1159 2488 1159 1978 
L 1159 0 
L 581 0 
L 581 3500 
L 1159 3500 
L 1159 2956 
Q 1356 3278 1631 3431 
Q 1906 3584 2284 3584 
Q 2666 3584 2933 3390 
Q 3200 3197 3328 2828 
z
" transform="scale(0.015625)"/>
       <path id="DejaVuSans-28" d="M 1984 4856 
Q 1566 4138 1362 3434 
Q 1159 2731 1159 2009 
Q 1159 1288 1364 580 
Q 1569 -128 1984 -844 
L 1484 -844 
Q 1016 -109 783 600 
Q 550 1309 550 2009 
Q 550 2706 781 3412 
Q 1013 4119 1484 4856 
L 1984 4856 
z
" transform="scale(0.015625)"/>
       <path id="DejaVuSans-29" d="M 513 4856 
L 1013 4856 
Q 1481 4119 1714 3412 
Q 1947 2706 1947 2009 
Q 1947 1309 1714 600 
Q 1481 -109 1013 -844 
L 513 -844 
Q 928 -128 1133 580 
Q 1338 1288 1338 2009 
Q 1338 2731 1133 3434 
Q 928 4138 513 4856 
z
" transform="scale(0.015625)"/>
      </defs>
      <use xlink:href="#DejaVuSans-4d"/>
      <use xlink:href="#DejaVuSans-65" transform="translate(86.279297 0)"/>
      <use xlink:href="#DejaVuSans-61" transform="translate(147.802734 0)"/>
      <use xlink:href="#DejaVuSans-6e" transform="translate(209.082031 0)"/>
      <use xlink:href="#DejaVuSans-20" transform="translate(272.460938 0)"/>
      <use xlink:href="#DejaVuSans-74" transform="translate(304.248047 0)"/>
      <use xlink:href="#DejaVuSans-69" transform="translate(343.457031 0)"/>
      <use xlink:href="#DejaVuSans-6d" transform="translate(371.240234 0)"/>
      <use xlink:href="#DejaVuSans-65" transform="translate(468.652344 0)"/>
      <use xlink:href="#DejaVuSans-20" transform="translate(530.175781 0)"/>
      <use xlink:href="#DejaVuSans-28" transform="translate(561.962891 0)"/>
      <use xlink:href="#DejaVuSans-6d" transform="translate(600.976562 0)"/>
      <use xlink:href="#DejaVuSans-73" transform="translate(698.388672 0)"/>
      <use xlink:href="#DejaVuSans-29" transform="translate(750.488281 0)"/>
     </g>
    </g>
   </g>
   <g id="line2d_25">
    <path d="M 68.766818 369.706813 
L 75.543889 373.332774 
L 82.32096 373.532727 
L 89.09803 373.216967 
L 95.875101 373.190668 
L 102.652172 373.020925 
L 109.429242 372.471721 
L 116.206313 372.339664 
L 122.983384 371.82061 
L 129.760455 371.698133 
L 136.537525 371.150913 
L 143.314596 371.106794 
L 150.091667 370.527135 
L 156.868737 370.49859 
L 163.645808 369.854664 
L 170.422879 369.876851 
L 177.199949 369.262838 
L 183.97702 369.167302 
L 190.754091 368.546142 
L 197.531162 368.675261 
L 204.308232 367.946952 
L 211.085303 367.67612 
L 217.862374 366.956641 
L 224.639444 366.85848 
L 231.416515 366.123755 
L 238.193586 366.386711 
L 244.970657 365.789611 
L 251.747727 365.754446 
L 258.524798 365.12835 
L 265.301869 365.032135 
L 272.078939 364.406776 
L 278.85601 364.31904 
L 285.633081 363.710988 
L 292.410152 363.324807 
L 299.187222 362.550801 
L 305.964293 362.787494 
L 312.741364 362.284336 
L 319.518434 362.097866 
L 326.295505 361.336763 
L 333.072576 361.407795 
L 339.849646 360.754364 
L 346.626717 360.10423 
L 353.403788 359.836502 
L 360.180859 359.361725 
L 366.957929 359.167301 
L 373.735 358.155313 
L 380.512071 357.77509 
L 387.289141 358.375686 
L 394.066212 357.792077 
L 400.843283 357.697868 
L 407.620354 356.900696 
L 414.397424 356.171681 
L 421.174495 356.028315 
L 427.951566 356.211675 
L 434.728636 355.118513 
L 441.505707 355.031572 
L 448.282778 354.774718 
L 455.059848 354.971956 
L 461.836919 353.605541 
L 468.61399 354.230088 
L 475.391061 353.647748 
L 482.168131 353.57847 
L 488.945202 352.751757 
L 495.722273 352.665192 
L 502.499343 351.673817 
L 509.276414 351.268403 
L 516.053485 351.567848 
L 522.830556 350.650717 
L 529.607626 349.349638 
L 536.384697 350.480353 
L 543.161768 349.620493 
L 549.938838 349.585726 
L 556.715909 348.675783 
L 563.49298 348.796274 
L 570.270051 348.226278 
L 577.047121 347.739872 
L 583.824192 346.885835 
L 590.601263 347.201816 
L 597.378333 346.368806 
L 604.155404 346.616145 
L 610.932475 344.847083 
L 617.709545 345.593067 
L 624.486616 344.49733 
L 631.263687 344.907298 
L 638.040758 343.004555 
L 644.817828 343.231782 
L 651.594899 343.325134 
L 658.37197 343.512676 
L 665.14904 341.645458 
L 671.926111 342.103644 
L 678.703182 341.494399 
" clip-path="url(#p5a4ada1bb2)" style="fill: none; stroke: #1f77b4; stroke-width: 1.5; stroke-linecap: square"/>
   </g>
   <g id="line2d_26">
    <path d="M 68.766818 362.142287 
L 75.543889 366.451572 
L 82.32096 367.063917 
L 89.09803 365.885147 
L 95.875101 366.404304 
L 102.652172 362.417918 
L 109.429242 365.561663 
L 116.206313 366.146683 
L 122.983384 365.799914 
L 129.760455 365.741593 
L 136.537525 366.126523 
L 143.314596 365.633985 
L 150.091667 366.106609 
L 156.868737 365.352948 
L 163.645808 365.11729 
L 170.422879 364.963196 
L 177.199949 363.747335 
L 183.97702 364.741982 
L 190.754091 364.756104 
L 197.531162 363.975662 
L 204.308232 363.644794 
L 211.085303 364.074777 
L 217.862374 362.422659 
L 224.639444 359.092882 
L 231.416515 359.539746 
L 238.193586 362.685633 
L 244.970657 362.811982 
L 251.747727 357.911796 
L 258.524798 362.774403 
L 265.301869 361.872637 
L 272.078939 359.803846 
L 278.85601 361.091916 
L 285.633081 361.269743 
L 292.410152 360.213615 
L 299.187222 360.350079 
L 305.964293 360.442763 
L 312.741364 360.294773 
L 319.518434 359.472368 
L 326.295505 359.595307 
L 333.072576 358.711974 
L 339.849646 358.614185 
L 346.626717 358.7376 
L 353.403788 358.338262 
L 360.180859 358.264448 
L 366.957929 357.494542 
L 373.735 357.70778 
L 380.512071 356.91942 
L 387.289141 357.106873 
L 394.066212 357.08439 
L 400.843283 356.664685 
L 407.620354 357.032576 
L 414.397424 356.831505 
L 421.174495 351.471255 
L 427.951566 355.808474 
L 434.728636 355.692249 
L 441.505707 355.141158 
L 448.282778 356.48164 
L 455.059848 356.311319 
L 461.836919 355.568552 
L 468.61399 354.276956 
L 475.391061 354.519685 
L 482.168131 353.661541 
L 488.945202 351.54701 
L 495.722273 349.909744 
L 502.499343 354.179776 
L 509.276414 352.909842 
L 516.053485 354.004249 
L 522.830556 354.454325 
L 529.607626 354.065279 
L 536.384697 351.148314 
L 543.161768 347.254505 
L 549.938838 353.432155 
L 556.715909 353.30328 
L 563.49298 350.377014 
L 570.270051 350.560796 
L 577.047121 347.417606 
L 583.824192 349.042179 
L 590.601263 337.823227 
L 597.378333 343.386381 
L 604.155404 349.708738 
L 610.932475 350.723962 
L 617.709545 350.912445 
L 624.486616 350.920851 
L 631.263687 348.48166 
L 638.040758 339.783902 
L 644.817828 350.56417 
L 651.594899 336.386244 
L 658.37197 347.929428 
L 665.14904 351.033352 
L 671.926111 350.492451 
L 678.703182 348.656415 
" clip-path="url(#p5a4ada1bb2)" style="fill: none; stroke: #ff7f0e; stroke-width: 1.5; stroke-linecap: square"/>
   </g>
   <g id="line2d_27">
    <path d="M 68.766818 369.027613 
L 75.543889 372.905849 
L 82.32096 372.648664 
L 89.09803 372.578146 
L 95.875101 372.574719 
L 102.652172 372.315326 
L 109.429242 371.53018 
L 116.206313 371.571682 
L 122.983384 371.315161 
L 129.760455 371.521443 
L 136.537525 371.299446 
L 143.314596 370.413111 
L 150.091667 371.051555 
L 156.868737 370.791271 
L 163.645808 370.47689 
L 170.422879 370.38358 
L 177.199949 369.074881 
L 183.97702 370.007656 
L 190.754091 369.12201 
L 197.531162 370.166683 
L 204.308232 369.751164 
L 211.085303 369.566295 
L 217.862374 369.046415 
L 224.639444 367.740762 
L 231.416515 366.954928 
L 238.193586 367.496586 
L 244.970657 367.346579 
L 251.747727 367.304613 
L 258.524798 367.015841 
L 265.301869 365.64905 
L 272.078939 366.315293 
L 278.85601 366.394498 
L 285.633081 366.094171 
L 292.410152 366.249152 
L 299.187222 365.911221 
L 305.964293 363.383013 
L 312.741364 364.886131 
L 319.518434 365.313731 
L 326.295505 364.940693 
L 333.072576 365.023225 
L 339.849646 364.406424 
L 346.626717 363.205034 
L 353.403788 363.461861 
L 360.180859 363.821642 
L 366.957929 363.633529 
L 373.735 363.311435 
L 380.512071 362.503553 
L 387.289141 361.768448 
L 394.066212 361.604621 
L 400.843283 362.192472 
L 407.620354 361.805269 
L 414.397424 361.343578 
L 421.174495 361.397607 
L 427.951566 359.634373 
L 434.728636 360.419293 
L 441.505707 360.785663 
L 448.282778 360.456088 
L 455.059848 359.987763 
L 461.836919 360.021554 
L 468.61399 359.632921 
L 475.391061 359.345545 
L 482.168131 358.77976 
L 488.945202 351.522151 
L 495.722273 357.995062 
L 502.499343 357.569321 
L 509.276414 356.598964 
L 516.053485 357.503312 
L 522.830556 357.413914 
L 529.607626 356.970437 
L 536.384697 356.49835 
L 543.161768 356.30814 
L 549.938838 353.064978 
L 556.715909 355.64802 
L 563.49298 356.028944 
L 570.270051 355.409701 
L 577.047121 355.093015 
L 583.824192 355.234688 
L 590.601263 354.806366 
L 597.378333 354.204079 
L 604.155404 353.47418 
L 610.932475 353.88399 
L 617.709545 353.923139 
L 624.486616 353.525737 
L 631.263687 343.794004 
L 638.040758 353.334726 
L 644.817828 353.091821 
L 651.594899 352.150495 
L 658.37197 352.278674 
L 665.14904 350.196229 
L 671.926111 349.424331 
L 678.703182 350.509278 
" clip-path="url(#p5a4ada1bb2)" style="fill: none; stroke: #2ca02c; stroke-width: 1.5; stroke-linecap: square"/>
   </g>
   <g id="line2d_28">
    <path d="M 68.766818 369.074239 
L 75.543889 372.417436 
L 82.32096 371.684739 
L 89.09803 372.028753 
L 95.875101 371.956533 
L 102.652172 370.845985 
L 109.429242 371.534342 
L 116.206313 371.219869 
L 122.983384 370.363673 
L 129.760455 370.784775 
L 136.537525 368.500653 
L 143.314596 370.533622 
L 150.091667 369.503119 
L 156.868737 370.100727 
L 163.645808 369.823794 
L 170.422879 369.046054 
L 177.199949 368.493229 
L 183.97702 369.557395 
L 190.754091 369.188425 
L 197.531162 368.524561 
L 204.308232 368.646543 
L 211.085303 368.348646 
L 217.862374 367.895198 
L 224.639444 367.636651 
L 231.416515 366.965326 
L 238.193586 366.656442 
L 244.970657 366.045407 
L 251.747727 366.161377 
L 258.524798 366.088295 
L 265.301869 365.93228 
L 272.078939 365.922803 
L 278.85601 365.810981 
L 285.633081 364.929042 
L 292.410152 365.91688 
L 299.187222 358.781927 
L 305.964293 363.376803 
L 312.741364 360.821902 
L 319.518434 364.774062 
L 326.295505 364.704925 
L 333.072576 364.941014 
L 339.849646 361.778244 
L 346.626717 364.717947 
L 353.403788 364.059068 
L 360.180859 364.03326 
L 366.957929 363.364556 
L 373.735 363.71621 
L 380.512071 363.25521 
L 387.289141 357.47103 
L 394.066212 362.495622 
L 400.843283 362.634801 
L 407.620354 359.943857 
L 414.397424 363.029088 
L 421.174495 361.634707 
L 427.951566 361.935323 
L 434.728636 359.842405 
L 441.505707 359.010281 
L 448.282778 353.705964 
L 455.059848 359.878925 
L 461.836919 360.548057 
L 468.61399 361.890135 
L 475.391061 359.638518 
L 482.168131 360.845817 
L 488.945202 360.89694 
L 495.722273 360.825287 
L 502.499343 359.122833 
L 509.276414 359.649211 
L 516.053485 357.323768 
L 522.830556 357.312047 
L 529.607626 359.476441 
L 536.384697 359.297165 
L 543.161768 359.17027 
L 549.938838 359.562623 
L 556.715909 359.464748 
L 563.49298 359.447765 
L 570.270051 359.031151 
L 577.047121 358.407199 
L 583.824192 350.065754 
L 590.601263 351.074021 
L 597.378333 358.402256 
L 604.155404 356.329073 
L 610.932475 357.613586 
L 617.709545 355.294356 
L 624.486616 356.143788 
L 631.263687 350.841331 
L 638.040758 356.895588 
L 644.817828 357.264092 
L 651.594899 357.094698 
L 658.37197 357.230224 
L 665.14904 356.139085 
L 671.926111 350.686188 
L 678.703182 355.01469 
" clip-path="url(#p5a4ada1bb2)" style="fill: none; stroke: #d62728; stroke-width: 1.5; stroke-linecap: square"/>
   </g>
   <g id="line2d_29">
    <path d="M 68.766818 367.381971 
L 75.543889 370.565649 
L 82.32096 369.605826 
L 89.09803 369.638899 
L 95.875101 369.348069 
L 102.652172 369.091108 
L 109.429242 369.666272 
L 116.206313 368.312207 
L 122.983384 369.187953 
L 129.760455 368.055241 
L 136.537525 367.160208 
L 143.314596 367.159725 
L 150.091667 365.813966 
L 156.868737 367.19355 
L 163.645808 366.914265 
L 170.422879 366.119331 
L 177.199949 366.909609 
L 183.97702 367.46274 
L 190.754091 368.451643 
L 197.531162 363.952448 
L 204.308232 364.152627 
L 211.085303 364.28738 
L 217.862374 362.781067 
L 224.639444 364.151891 
L 231.416515 362.422381 
L 238.193586 363.658337 
L 244.970657 362.663486 
L 251.747727 361.330941 
L 258.524798 364.79689 
L 265.301869 364.685294 
L 272.078939 365.172385 
L 278.85601 364.288626 
L 285.633081 363.965642 
L 292.410152 364.323912 
L 299.187222 363.836614 
L 305.964293 363.517618 
L 312.741364 360.806226 
L 319.518434 359.346181 
L 326.295505 361.276178 
L 333.072576 360.842899 
L 339.849646 361.281857 
L 346.626717 359.516928 
L 353.403788 361.435376 
L 360.180859 361.412956 
L 366.957929 361.221895 
L 373.735 360.414101 
L 380.512071 360.874932 
L 387.289141 359.787016 
L 394.066212 361.113685 
L 400.843283 360.802711 
L 407.620354 359.024221 
L 414.397424 361.079074 
L 421.174495 356.107839 
L 427.951566 357.775198 
L 434.728636 357.101871 
L 441.505707 356.901892 
L 448.282778 359.57898 
L 455.059848 355.741786 
L 461.836919 356.161255 
L 468.61399 355.645004 
L 475.391061 358.588397 
L 482.168131 352.692118 
L 488.945202 356.490033 
L 495.722273 357.471871 
L 502.499343 357.441208 
L 509.276414 358.717148 
L 516.053485 358.726994 
L 522.830556 357.99209 
L 529.607626 355.763279 
L 536.384697 356.369311 
L 543.161768 348.820331 
L 549.938838 352.048946 
L 556.715909 356.922089 
L 563.49298 355.672358 
L 570.270051 354.149379 
L 577.047121 355.040869 
L 583.824192 355.184819 
L 590.601263 353.533167 
L 597.378333 354.936287 
L 604.155404 355.541076 
L 610.932475 355.020786 
L 617.709545 351.558173 
L 624.486616 353.548675 
L 631.263687 352.979365 
L 638.040758 350.164742 
L 644.817828 355.339644 
L 651.594899 355.402571 
L 658.37197 356.233042 
L 665.14904 354.987431 
L 671.926111 354.586974 
L 678.703182 355.614692 
" clip-path="url(#p5a4ada1bb2)" style="fill: none; stroke: #9467bd; stroke-width: 1.5; stroke-linecap: square"/>
   </g>
   <g id="line2d_30">
    <path d="M 68.766818 342.951005 
L 75.543889 340.14586 
L 82.32096 336.995901 
L 89.09803 333.503334 
L 95.875101 330.926579 
L 102.652172 327.640112 
L 109.429242 323.849433 
L 116.206313 322.015509 
L 122.983384 319.122254 
L 129.760455 315.549937 
L 136.537525 312.56501 
L 143.314596 309.902957 
L 150.091667 305.165203 
L 156.868737 302.521494 
L 163.645808 299.353128 
L 170.422879 297.19802 
L 177.199949 293.358805 
L 183.97702 291.628314 
L 190.754091 287.926531 
L 197.531162 284.711718 
L 204.308232 280.814472 
L 211.085303 279.514097 
L 217.862374 264.598181 
L 224.639444 272.431366 
L 231.416515 267.433319 
L 238.193586 266.141313 
L 244.970657 262.989407 
L 251.747727 260.992015 
L 258.524798 255.514662 
L 265.301869 253.510936 
L 272.078939 249.698935 
L 278.85601 248.909391 
L 285.633081 243.434875 
L 292.410152 243.11292 
L 299.187222 238.137044 
L 305.964293 237.046006 
L 312.741364 233.256403 
L 319.518434 231.201646 
L 326.295505 224.63374 
L 333.072576 221.500335 
L 339.849646 220.297949 
L 346.626717 219.719289 
L 353.403788 215.537867 
L 360.180859 213.002186 
L 366.957929 209.913187 
L 373.735 206.200468 
L 380.512071 201.20757 
L 387.289141 202.330793 
L 394.066212 197.687244 
L 400.843283 195.998827 
L 407.620354 192.17546 
L 414.397424 186.997232 
L 421.174495 185.812094 
L 427.951566 183.97794 
L 434.728636 156.372872 
L 441.505707 175.101785 
L 448.282778 167.550546 
L 455.059848 170.364705 
L 461.836919 167.861574 
L 468.61399 164.726301 
L 475.391061 161.776171 
L 482.168131 157.627968 
L 488.945202 152.654403 
L 495.722273 153.346084 
L 502.499343 149.615944 
L 509.276414 144.611527 
L 516.053485 144.405454 
L 522.830556 142.087996 
L 529.607626 138.624879 
L 536.384697 139.401277 
L 543.161768 130.637106 
L 549.938838 133.937761 
L 556.715909 129.328197 
L 563.49298 125.329873 
L 570.270051 123.524252 
L 577.047121 124.818719 
L 583.824192 116.570739 
L 590.601263 117.999258 
L 597.378333 111.302042 
L 604.155404 114.218904 
L 610.932475 109.021288 
L 617.709545 101.201931 
L 624.486616 102.188445 
L 631.263687 102.935748 
L 638.040758 94.58367 
L 644.817828 94.7981 
L 651.594899 43.387273 
L 658.37197 90.045972 
L 665.14904 81.833711 
L 671.926111 80.849202 
L 678.703182 79.005078 
" clip-path="url(#p5a4ada1bb2)" style="fill: none; stroke-dasharray: 5.55,2.4; stroke-dashoffset: 0; stroke: #8c564b; stroke-width: 1.5"/>
   </g>
   <g id="patch_3">
    <path d="M 38.27 390.04 
L 38.27 26.88 
" style="fill: none; stroke: #000000; stroke-width: 0.8; stroke-linejoin: miter; stroke-linecap: square"/>
   </g>
   <g id="patch_4">
    <path d="M 709.2 390.04 
L 709.2 26.88 
" style="fill: none; stroke: #000000; stroke-width: 0.8; stroke-linejoin: miter; stroke-linecap: square"/>
   </g>
   <g id="patch_5">
    <path d="M 38.27 390.04 
L 709.2 390.04 
" style="fill: none; stroke: #000000; stroke-width: 0.8; stroke-linejoin: miter; stroke-linecap: square"/>
   </g>
   <g id="patch_6">
    <path d="M 38.27 26.88 
L 709.2 26.88 
" style="fill: none; stroke: #000000; stroke-width: 0.8; stroke-linejoin: miter; stroke-linecap: square"/>
   </g>
   <g id="text_16">
    <!-- DWT Mean Runtime -->
    <g transform="translate(314.296562 20.88) scale(0.12 -0.12)">
     <defs>
      <path id="DejaVuSans-44" d="M 1259 4147 
L 1259 519 
L 2022 519 
Q 2988 519 3436 956 
Q 3884 1394 3884 2338 
Q 3884 3275 3436 3711 
Q 2988 4147 2022 4147 
L 1259 4147 
z
M 628 4666 
L 1925 4666 
Q 3281 4666 3915 4102 
Q 4550 3538 4550 2338 
Q 4550 1131 3912 565 
Q 3275 0 1925 0 
L 628 0 
L 628 4666 
z
" transform="scale(0.015625)"/>
      <path id="DejaVuSans-57" d="M 213 4666 
L 850 4666 
L 1831 722 
L 2809 4666 
L 3519 4666 
L 4500 722 
L 5478 4666 
L 6119 4666 
L 4947 0 
L 4153 0 
L 3169 4050 
L 2175 0 
L 1381 0 
L 213 4666 
z
" transform="scale(0.015625)"/>
      <path id="DejaVuSans-54" d="M -19 4666 
L 3928 4666 
L 3928 4134 
L 2272 4134 
L 2272 0 
L 1638 0 
L 1638 4134 
L -19 4134 
L -19 4666 
z
" transform="scale(0.015625)"/>
      <path id="DejaVuSans-52" d="M 2841 2188 
Q 3044 2119 3236 1894 
Q 3428 1669 3622 1275 
L 4263 0 
L 3584 0 
L 2988 1197 
Q 2756 1666 2539 1819 
Q 2322 1972 1947 1972 
L 1259 1972 
L 1259 0 
L 628 0 
L 628 4666 
L 2053 4666 
Q 2853 4666 3247 4331 
Q 3641 3997 3641 3322 
Q 3641 2881 3436 2590 
Q 3231 2300 2841 2188 
z
M 1259 4147 
L 1259 2491 
L 2053 2491 
Q 2509 2491 2742 2702 
Q 2975 2913 2975 3322 
Q 2975 3731 2742 3939 
Q 2509 4147 2053 4147 
L 1259 4147 
z
" transform="scale(0.015625)"/>
      <path id="DejaVuSans-75" d="M 544 1381 
L 544 3500 
L 1119 3500 
L 1119 1403 
Q 1119 906 1312 657 
Q 1506 409 1894 409 
Q 2359 409 2629 706 
Q 2900 1003 2900 1516 
L 2900 3500 
L 3475 3500 
L 3475 0 
L 2900 0 
L 2900 538 
Q 2691 219 2414 64 
Q 2138 -91 1772 -91 
Q 1169 -91 856 284 
Q 544 659 544 1381 
z
M 1991 3584 
L 1991 3584 
z
" transform="scale(0.015625)"/>
     </defs>
     <use xlink:href="#DejaVuSans-44"/>
     <use xlink:href="#DejaVuSans-57" transform="translate(77.001953 0)"/>
     <use xlink:href="#DejaVuSans-54" transform="translate(175.878906 0)"/>
     <use xlink:href="#DejaVuSans-20" transform="translate(236.962891 0)"/>
     <use xlink:href="#DejaVuSans-4d" transform="translate(268.75 0)"/>
     <use xlink:href="#DejaVuSans-65" transform="translate(355.029297 0)"/>
     <use xlink:href="#DejaVuSans-61" transform="translate(416.552734 0)"/>
     <use xlink:href="#DejaVuSans-6e" transform="translate(477.832031 0)"/>
     <use xlink:href="#DejaVuSans-20" transform="translate(541.210938 0)"/>
     <use xlink:href="#DejaVuSans-52" transform="translate(572.998047 0)"/>
     <use xlink:href="#DejaVuSans-75" transform="translate(637.980469 0)"/>
     <use xlink:href="#DejaVuSans-6e" transform="translate(701.359375 0)"/>
     <use xlink:href="#DejaVuSans-74" transform="translate(764.738281 0)"/>
     <use xlink:href="#DejaVuSans-69" transform="translate(803.947266 0)"/>
     <use xlink:href="#DejaVuSans-6d" transform="translate(831.730469 0)"/>
     <use xlink:href="#DejaVuSans-65" transform="translate(929.142578 0)"/>
    </g>
   </g>
   <g id="legend_1">
    <g id="patch_7">
     <path d="M 45.27 122.94875 
L 178.3575 122.94875 
Q 180.3575 122.94875 180.3575 120.94875 
L 180.3575 33.88 
Q 180.3575 31.88 178.3575 31.88 
L 45.27 31.88 
Q 43.27 31.88 43.27 33.88 
L 43.27 120.94875 
Q 43.27 122.94875 45.27 122.94875 
z
" style="fill: #ffffff; opacity: 0.8; stroke: #cccccc; stroke-linejoin: miter"/>
    </g>
    <g id="line2d_31">
     <path d="M 47.27 39.978438 
L 57.27 39.978438 
L 67.27 39.978438 
" style="fill: none; stroke: #1f77b4; stroke-width: 1.5; stroke-linecap: square"/>
    </g>
    <g id="text_17">
     <!-- CPU 1d 1 thread(s) -->
     <g transform="translate(75.27 43.478438) scale(0.1 -0.1)">
      <defs>
       <path id="DejaVuSans-43" d="M 4122 4306 
L 4122 3641 
Q 3803 3938 3442 4084 
Q 3081 4231 2675 4231 
Q 1875 4231 1450 3742 
Q 1025 3253 1025 2328 
Q 1025 1406 1450 917 
Q 1875 428 2675 428 
Q 3081 428 3442 575 
Q 3803 722 4122 1019 
L 4122 359 
Q 3791 134 3420 21 
Q 3050 -91 2638 -91 
Q 1578 -91 968 557 
Q 359 1206 359 2328 
Q 359 3453 968 4101 
Q 1578 4750 2638 4750 
Q 3056 4750 3426 4639 
Q 3797 4528 4122 4306 
z
" transform="scale(0.015625)"/>
       <path id="DejaVuSans-50" d="M 1259 4147 
L 1259 2394 
L 2053 2394 
Q 2494 2394 2734 2622 
Q 2975 2850 2975 3272 
Q 2975 3691 2734 3919 
Q 2494 4147 2053 4147 
L 1259 4147 
z
M 628 4666 
L 2053 4666 
Q 2838 4666 3239 4311 
Q 3641 3956 3641 3272 
Q 3641 2581 3239 2228 
Q 2838 1875 2053 1875 
L 1259 1875 
L 1259 0 
L 628 0 
L 628 4666 
z
" transform="scale(0.015625)"/>
       <path id="DejaVuSans-55" d="M 556 4666 
L 1191 4666 
L 1191 1831 
Q 1191 1081 1462 751 
Q 1734 422 2344 422 
Q 2950 422 3222 751 
Q 3494 1081 3494 1831 
L 3494 4666 
L 4128 4666 
L 4128 1753 
Q 4128 841 3676 375 
Q 3225 -91 2344 -91 
Q 1459 -91 1007 375 
Q 556 841 556 1753 
L 556 4666 
z
" transform="scale(0.015625)"/>
       <path id="DejaVuSans-64" d="M 2906 2969 
L 2906 4863 
L 3481 4863 
L 3481 0 
L 2906 0 
L 2906 525 
Q 2725 213 2448 61 
Q 2172 -91 1784 -91 
Q 1150 -91 751 415 
Q 353 922 353 1747 
Q 353 2572 751 3078 
Q 1150 3584 1784 3584 
Q 2172 3584 2448 3432 
Q 2725 3281 2906 2969 
z
M 947 1747 
Q 947 1113 1208 752 
Q 1469 391 1925 391 
Q 2381 391 2643 752 
Q 2906 1113 2906 1747 
Q 2906 2381 2643 2742 
Q 2381 3103 1925 3103 
Q 1469 3103 1208 2742 
Q 947 2381 947 1747 
z
" transform="scale(0.015625)"/>
       <path id="DejaVuSans-68" d="M 3513 2113 
L 3513 0 
L 2938 0 
L 2938 2094 
Q 2938 2591 2744 2837 
Q 2550 3084 2163 3084 
Q 1697 3084 1428 2787 
Q 1159 2491 1159 1978 
L 1159 0 
L 581 0 
L 581 4863 
L 1159 4863 
L 1159 2956 
Q 1366 3272 1645 3428 
Q 1925 3584 2291 3584 
Q 2894 3584 3203 3211 
Q 3513 2838 3513 2113 
z
" transform="scale(0.015625)"/>
       <path id="DejaVuSans-72" d="M 2631 2963 
Q 2534 3019 2420 3045 
Q 2306 3072 2169 3072 
Q 1681 3072 1420 2755 
Q 1159 2438 1159 1844 
L 1159 0 
L 581 0 
L 581 3500 
L 1159 3500 
L 1159 2956 
Q 1341 3275 1631 3429 
Q 1922 3584 2338 3584 
Q 2397 3584 2469 3576 
Q 2541 3569 2628 3553 
L 2631 2963 
z
" transform="scale(0.015625)"/>
      </defs>
      <use xlink:href="#DejaVuSans-43"/>
      <use xlink:href="#DejaVuSans-50" transform="translate(69.824219 0)"/>
      <use xlink:href="#DejaVuSans-55" transform="translate(130.126953 0)"/>
      <use xlink:href="#DejaVuSans-20" transform="translate(203.320312 0)"/>
      <use xlink:href="#DejaVuSans-31" transform="translate(235.107422 0)"/>
      <use xlink:href="#DejaVuSans-64" transform="translate(298.730469 0)"/>
      <use xlink:href="#DejaVuSans-20" transform="translate(362.207031 0)"/>
      <use xlink:href="#DejaVuSans-31" transform="translate(393.994141 0)"/>
      <use xlink:href="#DejaVuSans-20" transform="translate(457.617188 0)"/>
      <use xlink:href="#DejaVuSans-74" transform="translate(489.404297 0)"/>
      <use xlink:href="#DejaVuSans-68" transform="translate(528.613281 0)"/>
      <use xlink:href="#DejaVuSans-72" transform="translate(591.992188 0)"/>
      <use xlink:href="#DejaVuSans-65" transform="translate(630.855469 0)"/>
      <use xlink:href="#DejaVuSans-61" transform="translate(692.378906 0)"/>
      <use xlink:href="#DejaVuSans-64" transform="translate(753.658203 0)"/>
      <use xlink:href="#DejaVuSans-28" transform="translate(817.134766 0)"/>
      <use xlink:href="#DejaVuSans-73" transform="translate(856.148438 0)"/>
      <use xlink:href="#DejaVuSans-29" transform="translate(908.248047 0)"/>
     </g>
    </g>
    <g id="line2d_32">
     <path d="M 47.27 54.656563 
L 57.27 54.656563 
L 67.27 54.656563 
" style="fill: none; stroke: #ff7f0e; stroke-width: 1.5; stroke-linecap: square"/>
    </g>
    <g id="text_18">
     <!-- CPU 1d 16 thread(s) -->
     <g transform="translate(75.27 58.156563) scale(0.1 -0.1)">
      <use xlink:href="#DejaVuSans-43"/>
      <use xlink:href="#DejaVuSans-50" transform="translate(69.824219 0)"/>
      <use xlink:href="#DejaVuSans-55" transform="translate(130.126953 0)"/>
      <use xlink:href="#DejaVuSans-20" transform="translate(203.320312 0)"/>
      <use xlink:href="#DejaVuSans-31" transform="translate(235.107422 0)"/>
      <use xlink:href="#DejaVuSans-64" transform="translate(298.730469 0)"/>
      <use xlink:href="#DejaVuSans-20" transform="translate(362.207031 0)"/>
      <use xlink:href="#DejaVuSans-31" transform="translate(393.994141 0)"/>
      <use xlink:href="#DejaVuSans-36" transform="translate(457.617188 0)"/>
      <use xlink:href="#DejaVuSans-20" transform="translate(521.240234 0)"/>
      <use xlink:href="#DejaVuSans-74" transform="translate(553.027344 0)"/>
      <use xlink:href="#DejaVuSans-68" transform="translate(592.236328 0)"/>
      <use xlink:href="#DejaVuSans-72" transform="translate(655.615234 0)"/>
      <use xlink:href="#DejaVuSans-65" transform="translate(694.478516 0)"/>
      <use xlink:href="#DejaVuSans-61" transform="translate(756.001953 0)"/>
      <use xlink:href="#DejaVuSans-64" transform="translate(817.28125 0)"/>
      <use xlink:href="#DejaVuSans-28" transform="translate(880.757812 0)"/>
      <use xlink:href="#DejaVuSans-73" transform="translate(919.771484 0)"/>
      <use xlink:href="#DejaVuSans-29" transform="translate(971.871094 0)"/>
     </g>
    </g>
    <g id="line2d_33">
     <path d="M 47.27 69.334688 
L 57.27 69.334688 
L 67.27 69.334688 
" style="fill: none; stroke: #2ca02c; stroke-width: 1.5; stroke-linecap: square"/>
    </g>
    <g id="text_19">
     <!-- CPU 1d 2 thread(s) -->
     <g transform="translate(75.27 72.834688) scale(0.1 -0.1)">
      <use xlink:href="#DejaVuSans-43"/>
      <use xlink:href="#DejaVuSans-50" transform="translate(69.824219 0)"/>
      <use xlink:href="#DejaVuSans-55" transform="translate(130.126953 0)"/>
      <use xlink:href="#DejaVuSans-20" transform="translate(203.320312 0)"/>
      <use xlink:href="#DejaVuSans-31" transform="translate(235.107422 0)"/>
      <use xlink:href="#DejaVuSans-64" transform="translate(298.730469 0)"/>
      <use xlink:href="#DejaVuSans-20" transform="translate(362.207031 0)"/>
      <use xlink:href="#DejaVuSans-32" transform="translate(393.994141 0)"/>
      <use xlink:href="#DejaVuSans-20" transform="translate(457.617188 0)"/>
      <use xlink:href="#DejaVuSans-74" transform="translate(489.404297 0)"/>
      <use xlink:href="#DejaVuSans-68" transform="translate(528.613281 0)"/>
      <use xlink:href="#DejaVuSans-72" transform="translate(591.992188 0)"/>
      <use xlink:href="#DejaVuSans-65" transform="translate(630.855469 0)"/>
      <use xlink:href="#DejaVuSans-61" transform="translate(692.378906 0)"/>
      <use xlink:href="#DejaVuSans-64" transform="translate(753.658203 0)"/>
      <use xlink:href="#DejaVuSans-28" transform="translate(817.134766 0)"/>
      <use xlink:href="#DejaVuSans-73" transform="translate(856.148438 0)"/>
      <use xlink:href="#DejaVuSans-29" transform="translate(908.248047 0)"/>
     </g>
    </g>
    <g id="line2d_34">
     <path d="M 47.27 84.012813 
L 57.27 84.012813 
L 67.27 84.012813 
" style="fill: none; stroke: #d62728; stroke-width: 1.5; stroke-linecap: square"/>
    </g>
    <g id="text_20">
     <!-- CPU 1d 4 thread(s) -->
     <g transform="translate(75.27 87.512813) scale(0.1 -0.1)">
      <use xlink:href="#DejaVuSans-43"/>
      <use xlink:href="#DejaVuSans-50" transform="translate(69.824219 0)"/>
      <use xlink:href="#DejaVuSans-55" transform="translate(130.126953 0)"/>
      <use xlink:href="#DejaVuSans-20" transform="translate(203.320312 0)"/>
      <use xlink:href="#DejaVuSans-31" transform="translate(235.107422 0)"/>
      <use xlink:href="#DejaVuSans-64" transform="translate(298.730469 0)"/>
      <use xlink:href="#DejaVuSans-20" transform="translate(362.207031 0)"/>
      <use xlink:href="#DejaVuSans-34" transform="translate(393.994141 0)"/>
      <use xlink:href="#DejaVuSans-20" transform="translate(457.617188 0)"/>
      <use xlink:href="#DejaVuSans-74" transform="translate(489.404297 0)"/>
      <use xlink:href="#DejaVuSans-68" transform="translate(528.613281 0)"/>
      <use xlink:href="#DejaVuSans-72" transform="translate(591.992188 0)"/>
      <use xlink:href="#DejaVuSans-65" transform="translate(630.855469 0)"/>
      <use xlink:href="#DejaVuSans-61" transform="translate(692.378906 0)"/>
      <use xlink:href="#DejaVuSans-64" transform="translate(753.658203 0)"/>
      <use xlink:href="#DejaVuSans-28" transform="translate(817.134766 0)"/>
      <use xlink:href="#DejaVuSans-73" transform="translate(856.148438 0)"/>
      <use xlink:href="#DejaVuSans-29" transform="translate(908.248047 0)"/>
     </g>
    </g>
    <g id="line2d_35">
     <path d="M 47.27 98.690938 
L 57.27 98.690938 
L 67.27 98.690938 
" style="fill: none; stroke: #9467bd; stroke-width: 1.5; stroke-linecap: square"/>
    </g>
    <g id="text_21">
     <!-- CPU 1d 8 thread(s) -->
     <g transform="translate(75.27 102.190938) scale(0.1 -0.1)">
      <use xlink:href="#DejaVuSans-43"/>
      <use xlink:href="#DejaVuSans-50" transform="translate(69.824219 0)"/>
      <use xlink:href="#DejaVuSans-55" transform="translate(130.126953 0)"/>
      <use xlink:href="#DejaVuSans-20" transform="translate(203.320312 0)"/>
      <use xlink:href="#DejaVuSans-31" transform="translate(235.107422 0)"/>
      <use xlink:href="#DejaVuSans-64" transform="translate(298.730469 0)"/>
      <use xlink:href="#DejaVuSans-20" transform="translate(362.207031 0)"/>
      <use xlink:href="#DejaVuSans-38" transform="translate(393.994141 0)"/>
      <use xlink:href="#DejaVuSans-20" transform="translate(457.617188 0)"/>
      <use xlink:href="#DejaVuSans-74" transform="translate(489.404297 0)"/>
      <use xlink:href="#DejaVuSans-68" transform="translate(528.613281 0)"/>
      <use xlink:href="#DejaVuSans-72" transform="translate(591.992188 0)"/>
      <use xlink:href="#DejaVuSans-65" transform="translate(630.855469 0)"/>
      <use xlink:href="#DejaVuSans-61" transform="translate(692.378906 0)"/>
      <use xlink:href="#DejaVuSans-64" transform="translate(753.658203 0)"/>
      <use xlink:href="#DejaVuSans-28" transform="translate(817.134766 0)"/>
      <use xlink:href="#DejaVuSans-73" transform="translate(856.148438 0)"/>
      <use xlink:href="#DejaVuSans-29" transform="translate(908.248047 0)"/>
     </g>
    </g>
    <g id="line2d_36">
     <path d="M 47.27 113.369063 
L 57.27 113.369063 
L 67.27 113.369063 
" style="fill: none; stroke-dasharray: 5.55,2.4; stroke-dashoffset: 0; stroke: #8c564b; stroke-width: 1.5"/>
    </g>
    <g id="text_22">
     <!-- PyWavelets 2d -->
     <g transform="translate(75.27 116.869063) scale(0.1 -0.1)">
      <defs>
       <path id="DejaVuSans-79" d="M 2059 -325 
Q 1816 -950 1584 -1140 
Q 1353 -1331 966 -1331 
L 506 -1331 
L 506 -850 
L 844 -850 
Q 1081 -850 1212 -737 
Q 1344 -625 1503 -206 
L 1606 56 
L 191 3500 
L 800 3500 
L 1894 763 
L 2988 3500 
L 3597 3500 
L 2059 -325 
z
" transform="scale(0.015625)"/>
       <path id="DejaVuSans-76" d="M 191 3500 
L 800 3500 
L 1894 563 
L 2988 3500 
L 3597 3500 
L 2284 0 
L 1503 0 
L 191 3500 
z
" transform="scale(0.015625)"/>
      </defs>
      <use xlink:href="#DejaVuSans-50"/>
      <use xlink:href="#DejaVuSans-79" transform="translate(60.302734 0)"/>
      <use xlink:href="#DejaVuSans-57" transform="translate(119.482422 0)"/>
      <use xlink:href="#DejaVuSans-61" transform="translate(211.984375 0)"/>
      <use xlink:href="#DejaVuSans-76" transform="translate(273.263672 0)"/>
      <use xlink:href="#DejaVuSans-65" transform="translate(332.443359 0)"/>
      <use xlink:href="#DejaVuSans-6c" transform="translate(393.966797 0)"/>
      <use xlink:href="#DejaVuSans-65" transform="translate(421.75 0)"/>
      <use xlink:href="#DejaVuSans-74" transform="translate(483.273438 0)"/>
      <use xlink:href="#DejaVuSans-73" transform="translate(522.482422 0)"/>
      <use xlink:href="#DejaVuSans-20" transform="translate(574.582031 0)"/>
      <use xlink:href="#DejaVuSans-32" transform="translate(606.369141 0)"/>
      <use xlink:href="#DejaVuSans-64" transform="translate(669.992188 0)"/>
     </g>
    </g>
   </g>
  </g>
 </g>
 <defs>
  <clipPath id="p5a4ada1bb2">
   <rect x="38.27" y="26.88" width="670.93" height="363.16"/>
  </clipPath>
 </defs>
</svg>
